<?xml version="1.0" encoding="UTF-8" standalone="no"?>
<svg
   xmlns:dc="http://purl.org/dc/elements/1.1/"
   xmlns:cc="http://creativecommons.org/ns#"
   xmlns:rdf="http://www.w3.org/1999/02/22-rdf-syntax-ns#"
   xmlns:svg="http://www.w3.org/2000/svg"
   xmlns="http://www.w3.org/2000/svg"
   xmlns:sodipodi="http://sodipodi.sourceforge.net/DTD/sodipodi-0.dtd"
   xmlns:inkscape="http://www.inkscape.org/namespaces/inkscape"
   sodipodi:docname="Markierung.svg"
   inkscape:version="1.0 (4035a4fb49, 2020-05-01)"
   id="svg8"
   version="1.1"
   viewBox="0 0 500 500"
   height="500mm"
   width="500mm">
  <defs
     id="defs2">
    <marker
       inkscape:isstock="true"
       style="overflow:visible"
       id="EmptyTriangleOutL"
       refX="0.0"
       refY="0.0"
       orient="auto"
       inkscape:stockid="EmptyTriangleOutL">
      <path
         transform="scale(0.8) translate(-6,0)"
         style="fill-rule:evenodd;fill:#ffffff;stroke:#000000;stroke-width:1pt;stroke-opacity:1"
         d="M 5.77,0.0 L -2.88,5.0 L -2.88,-5.0 L 5.77,0.0 z "
         id="path1967" />
    </marker>
    <marker
       inkscape:isstock="true"
       style="overflow:visible"
       id="DiamondLend"
       refX="0.0"
       refY="0.0"
       orient="auto"
       inkscape:stockid="DiamondLend">
      <path
         transform="scale(0.8) translate(-7,0)"
         style="fill-rule:evenodd;stroke:#000000;stroke-width:1pt;stroke-opacity:1;fill:#000000;fill-opacity:1"
         d="M 0,-7.0710768 L -7.0710894,0 L 0,7.0710589 L 7.0710462,0 L 0,-7.0710768 z "
         id="path1904" />
    </marker>
    <marker
       inkscape:isstock="true"
       style="overflow:visible;"
       id="Arrow1Lend"
       refX="0.0"
       refY="0.0"
       orient="auto"
       inkscape:stockid="Arrow1Lend">
      <path
         transform="scale(0.8) rotate(180) translate(12.5,0)"
         style="fill-rule:evenodd;stroke:#000000;stroke-width:1pt;stroke-opacity:1;fill:#000000;fill-opacity:1"
         d="M 0.0,0.0 L 5.0,-5.0 L -12.5,0.0 L 5.0,5.0 L 0.0,0.0 z "
         id="path1810" />
    </marker>
  </defs>
  <sodipodi:namedview
     inkscape:document-rotation="0"
     inkscape:guide-bbox="true"
     showguides="true"
     inkscape:snap-global="false"
     inkscape:window-maximized="1"
     inkscape:window-y="-8"
     inkscape:window-x="1912"
     inkscape:window-height="1387"
     inkscape:window-width="2560"
     inkscape:snap-page="true"
     showgrid="false"
     inkscape:current-layer="g1042"
     inkscape:document-units="mm"
     inkscape:cy="2037.0364"
     inkscape:cx="1674.935"
     inkscape:zoom="0.175"
     inkscape:pageshadow="2"
     inkscape:pageopacity="0.0"
     borderopacity="1.0"
     bordercolor="#666666"
     pagecolor="#ffffff"
     id="base" />
  <metadata
     id="metadata5">
    <rdf:RDF>
      <cc:Work
         rdf:about="">
        <dc:format>image/svg+xml</dc:format>
        <dc:type
           rdf:resource="http://purl.org/dc/dcmitype/StillImage" />
        <dc:title />
      </cc:Work>
    </rdf:RDF>
  </metadata>
  <g
     transform="translate(0,203)"
     id="layer1"
     inkscape:groupmode="layer"
     inkscape:label="Ebene 1">
    <path
       inkscape:connector-curvature="0"
       id="path4589"
       d="M 51.518514,213.69998 H 450.33951 Z"
       style="display:inline;fill:none;stroke:#000000;stroke-width:0.26458332px;stroke-linecap:butt;stroke-linejoin:miter;stroke-opacity:1" />
    <path
       inkscape:connector-curvature="0"
       id="path4591"
       d="M 51.518514,176.6 H 450.33951"
       style="display:inline;fill:none;stroke:#000000;stroke-width:0.26458332px;stroke-linecap:butt;stroke-linejoin:miter;stroke-opacity:1" />
    <path
       inkscape:connector-curvature="0"
       id="path4593"
       d="M 450.33951,139.59998 H 51.518514"
       style="display:inline;fill:none;stroke:#000000;stroke-width:0.26458332px;stroke-linecap:butt;stroke-linejoin:miter;stroke-opacity:1" />
    <path
       inkscape:connector-curvature="0"
       id="path4595"
       d="M 51.518514,102.59999 H 450.33951"
       style="display:inline;fill:none;stroke:#000000;stroke-width:0.26458332px;stroke-linecap:butt;stroke-linejoin:miter;stroke-opacity:1" />
    <path
       inkscape:connector-curvature="0"
       id="path4597"
       d="M 450.33951,65.499984 H 51.518514"
       style="display:inline;fill:none;stroke:#000000;stroke-width:0.26458332px;stroke-linecap:butt;stroke-linejoin:miter;stroke-opacity:1" />
    <path
       inkscape:connector-curvature="0"
       id="path4599"
       d="M 51.518514,28.499989 H 450.33951"
       style="display:inline;fill:none;stroke:#000000;stroke-width:0.26458332px;stroke-linecap:butt;stroke-linejoin:miter;stroke-opacity:1" />
    <path
       inkscape:connector-curvature="0"
       id="path4601"
       d="M 450.33951,-8.5000112 H 51.518514"
       style="display:inline;fill:none;stroke:#000000;stroke-width:0.26458332px;stroke-linecap:butt;stroke-linejoin:miter;stroke-opacity:1" />
    <path
       inkscape:connector-curvature="0"
       id="path4603"
       d="M 51.518514,-45.600003 H 450.33951"
       style="display:inline;fill:none;stroke:#000000;stroke-width:0.26458332px;stroke-linecap:butt;stroke-linejoin:miter;stroke-opacity:1" />
    <path
       inkscape:connector-curvature="0"
       id="path4605"
       d="M 450.33951,-82.600003 H 51.518514"
       style="display:inline;fill:none;stroke:#000000;stroke-width:0.26458332px;stroke-linecap:butt;stroke-linejoin:miter;stroke-opacity:1" />
    <path
       inkscape:connector-curvature="0"
       id="path4607"
       d="M 51.518515,-119.60001 H 450.33983"
       style="display:inline;fill:none;stroke:#000000;stroke-width:0.26458329px;stroke-linecap:butt;stroke-linejoin:miter;stroke-opacity:1" />
    <path
       inkscape:connector-curvature="0"
       id="path4609"
       d="M 83.29999,226.52892 V -133.20715"
       style="display:inline;fill:none;stroke:#000000;stroke-width:0.26458332px;stroke-linecap:butt;stroke-linejoin:miter;stroke-opacity:1" />
    <path
       inkscape:connector-curvature="0"
       id="path4611"
       d="M 116.69999,-133.20715 V 226.52886"
       style="display:inline;fill:none;stroke:#000000;stroke-width:0.26458332px;stroke-linecap:butt;stroke-linejoin:miter;stroke-opacity:1" />
    <path
       inkscape:connector-curvature="0"
       id="path4613"
       d="M 149.99999,226.52886 V -133.20715"
       style="display:inline;fill:none;stroke:#000000;stroke-width:0.26458332px;stroke-linecap:butt;stroke-linejoin:miter;stroke-opacity:1" />
    <path
       inkscape:connector-curvature="0"
       id="path4615"
       d="M 183.29999,-133.20715 V 226.52886"
       style="display:inline;fill:none;stroke:#000000;stroke-width:0.26458332px;stroke-linecap:butt;stroke-linejoin:miter;stroke-opacity:1" />
    <path
       inkscape:connector-curvature="0"
       id="path4617"
       d="M 216.69999,226.52886 V -133.20715"
       style="display:inline;fill:none;stroke:#000000;stroke-width:0.26458332px;stroke-linecap:butt;stroke-linejoin:miter;stroke-opacity:1" />
    <path
       inkscape:connector-curvature="0"
       id="path4619"
       d="M 249.99999,-133.20715 V 226.52886"
       style="display:inline;fill:none;stroke:#000000;stroke-width:0.26458332px;stroke-linecap:butt;stroke-linejoin:miter;stroke-opacity:1" />
    <path
       inkscape:connector-curvature="0"
       id="path4623"
       d="M 283.3,-133.20715 V 226.52886"
       style="display:inline;fill:none;stroke:#000000;stroke-width:0.26458332px;stroke-linecap:butt;stroke-linejoin:miter;stroke-opacity:1" />
    <path
       inkscape:connector-curvature="0"
       id="path4625"
       d="M 316.7,226.52886 V -133.20715"
       style="display:inline;fill:none;stroke:#000000;stroke-width:0.26458332px;stroke-linecap:butt;stroke-linejoin:miter;stroke-opacity:1" />
    <path
       inkscape:connector-curvature="0"
       id="path4627"
       d="M 350.00001,-133.20715 V 226.52886"
       style="display:inline;fill:none;stroke:#000000;stroke-width:0.26458332px;stroke-linecap:butt;stroke-linejoin:miter;stroke-opacity:1" />
    <path
       inkscape:connector-curvature="0"
       id="path4629"
       d="M 383.29999,226.52886 V -133.20715"
       style="display:inline;fill:none;stroke:#000000;stroke-width:0.26458332px;stroke-linecap:butt;stroke-linejoin:miter;stroke-opacity:1" />
    <path
       inkscape:connector-curvature="0"
       id="path4631"
       d="M 416.69998,-133.20715 V 226.52886"
       style="display:inline;fill:none;stroke:#000000;stroke-width:0.26458332px;stroke-linecap:butt;stroke-linejoin:miter;stroke-opacity:1" />
    <path
       sodipodi:nodetypes="ccc"
       inkscape:connector-curvature="0"
       id="path4642"
       d="m 34.99999,223.90534 0,38.09465 37.716667,0"
       style="display:inline;fill:none;stroke:#000000;stroke-width:0.26458332px;stroke-linecap:butt;stroke-linejoin:miter;stroke-opacity:1" />
    <path
       sodipodi:nodetypes="ccc"
       inkscape:connector-curvature="0"
       id="path4644"
       d="m 424.07052,261.99999 40.92947,0 0,-39.41757"
       style="display:inline;fill:none;stroke:#000000;stroke-width:0.26458332px;stroke-linecap:butt;stroke-linejoin:miter;stroke-opacity:1" />
    <path
       sodipodi:nodetypes="ccc"
       inkscape:connector-curvature="0"
       id="path4646"
       d="m 464.99999,-127.35083 v -40.64918 l -41.08373,0"
       style="display:inline;fill:none;stroke:#000000;stroke-width:0.26458332px;stroke-linecap:butt;stroke-linejoin:miter;stroke-opacity:1" />
    <path
       sodipodi:nodetypes="ccc"
       inkscape:connector-curvature="0"
       id="path4648"
       d="m 75.740466,-168.00001 -40.740476,0 0,31.58006"
       style="display:inline;fill:none;stroke:#000000;stroke-width:0.26458332px;stroke-linecap:butt;stroke-linejoin:miter;stroke-opacity:1" />
    <rect
       y="-203"
       x="-4.6386717e-06"
       height="500"
       width="500"
       id="rect4848"
       style="display:inline;fill:none;stroke:#0000ff;stroke-width:0.26458338" />
    <rect
       transform="rotate(45)"
       style="fill:none;stroke:#000000;stroke-width:0.25;stroke-linecap:round;stroke-miterlimit:4;stroke-dasharray:none"
       id="rect114"
       width="5"
       height="5"
       x="207.48973"
       y="-444.99274" />
    <rect
       transform="rotate(45)"
       style="fill:none;stroke:#000000;stroke-width:0.25;stroke-linecap:round;stroke-miterlimit:4;stroke-dasharray:none"
       id="rect114-3"
       width="5"
       height="5"
       x="-91.530479"
       y="-146.05345" />
    <rect
       transform="rotate(45)"
       style="fill:none;stroke:#000000;stroke-width:0.25;stroke-linecap:round;stroke-miterlimit:4;stroke-dasharray:none"
       id="rect114-6"
       width="5"
       height="5"
       x="207.51071"
       y="152.8541" />
    <rect
       transform="rotate(45)"
       style="fill:none;stroke:#000000;stroke-width:0.25;stroke-linecap:round;stroke-miterlimit:4;stroke-dasharray:none"
       id="rect114-7"
       width="5"
       height="5"
       x="506.25122"
       y="-146.02005" />
    <circle
       r="6"
       cy="225.23215"
       cx="21.497025"
       id="path1803"
       style="fill:none;fill-opacity:1;stroke:#0000ff;stroke-width:0.26499999;stroke-linecap:round;stroke-linejoin:round;stroke-miterlimit:4;stroke-dasharray:none" />
    <path
       sodipodi:nodetypes="cccccc"
       inkscape:connector-curvature="0"
       id="path2354"
       d="m 38.938412,-54.725876 -3.284379,3.24585 10.418792,3.61419 -3.468273,-10.46828 c 0,0 -2.264339,2.25469 -3.422868,3.39715 -22.289455,-20.180418 -7.549549,-26.003894 0.161633,-27.026256"
       style="fill:none;fill-opacity:1;stroke:#0000ff;stroke-width:0.25;stroke-linecap:round;stroke-linejoin:round;stroke-miterlimit:4;stroke-dasharray:none" />
    <path
       style="fill:none;fill-opacity:1;stroke:#0000ff;stroke-width:0.25;stroke-linecap:round;stroke-linejoin:round;stroke-miterlimit:4;stroke-dasharray:none"
       d="m 38.938412,18.601505 -3.284379,3.24585 10.418792,3.61419 -3.468273,-10.46828 c 0,0 -2.264339,2.25469 -3.422868,3.39715 C 16.892229,-1.790003 31.632135,-7.613479 39.343317,-8.635841"
       id="path2356"
       inkscape:connector-curvature="0"
       sodipodi:nodetypes="cccccc" />
    <path
       sodipodi:nodetypes="cccccc"
       inkscape:connector-curvature="0"
       id="path2358"
       d="m 38.938412,93.436973 -3.284379,3.24585 10.418792,3.614187 -3.468273,-10.468277 c 0,0 -2.264339,2.25469 -3.422868,3.39715 C 16.892229,73.045465 31.632135,67.221989 39.343317,66.199627"
       style="fill:none;fill-opacity:1;stroke:#0000ff;stroke-width:0.25;stroke-linecap:round;stroke-linejoin:round;stroke-miterlimit:4;stroke-dasharray:none" />
    <path
       style="fill:none;fill-opacity:1;stroke:#0000ff;stroke-width:0.25;stroke-linecap:round;stroke-linejoin:round;stroke-miterlimit:4;stroke-dasharray:none"
       d="m 38.938412,167.20336 -3.284379,3.24585 10.418792,3.61419 -3.468273,-10.46828 c 0,0 -2.264339,2.25469 -3.422868,3.39715 -22.289455,-20.18042 -7.549549,-26.00389 0.161633,-27.02625"
       id="path2360"
       inkscape:connector-curvature="0"
       sodipodi:nodetypes="cccccc" />
    <path
       sodipodi:nodetypes="cccccc"
       inkscape:connector-curvature="0"
       id="path2362"
       d="m 460.20762,-92.273429 3.28438,3.24585 -10.4188,3.61419 3.46828,-10.46828 c 0,0 2.26434,2.25469 3.42287,3.39715 22.28945,-20.180411 7.54954,-26.003881 -0.16164,-27.026241"
       style="fill:none;fill-opacity:1;stroke:#0000ff;stroke-width:0.25;stroke-linecap:round;stroke-linejoin:round;stroke-miterlimit:4;stroke-dasharray:none" />
    <path
       style="fill:none;fill-opacity:1;stroke:#0000ff;stroke-width:0.25;stroke-linecap:round;stroke-linejoin:round;stroke-miterlimit:4;stroke-dasharray:none"
       d="m 460.20762,-18.190096 3.28438,3.24585 -10.4188,3.61419 3.46828,-10.46828 c 0,0 2.26434,2.25469 3.42287,3.39715 22.28945,-20.180411 7.54954,-26.003881 -0.16164,-27.026241"
       id="path2364"
       inkscape:connector-curvature="0"
       sodipodi:nodetypes="cccccc" />
    <path
       sodipodi:nodetypes="cccccc"
       inkscape:connector-curvature="0"
       id="path2366"
       d="m 460.20762,55.704249 3.28438,3.24585 -10.4188,3.61419 3.46828,-10.46828 c 0,0 2.26434,2.25469 3.42287,3.39715 22.28945,-20.180411 7.54954,-26.003881 -0.16164,-27.026241"
       style="fill:none;fill-opacity:1;stroke:#0000ff;stroke-width:0.25;stroke-linecap:round;stroke-linejoin:round;stroke-miterlimit:4;stroke-dasharray:none" />
    <path
       style="fill:none;fill-opacity:1;stroke:#0000ff;stroke-width:0.25;stroke-linecap:round;stroke-linejoin:round;stroke-miterlimit:4;stroke-dasharray:none"
       d="m 460.20762,129.97657 3.28438,3.24585 -10.4188,3.61419 3.46828,-10.46828 c 0,0 2.26434,2.25469 3.42287,3.39715 22.28945,-20.18041 7.54954,-26.00388 -0.16164,-27.02624"
       id="path2368"
       inkscape:connector-curvature="0"
       sodipodi:nodetypes="cccccc" />
    <path
       sodipodi:nodetypes="cccccc"
       inkscape:connector-curvature="0"
       id="path2370"
       d="m 460.20762,204.62687 3.28438,3.24585 -10.4188,3.61419 3.46828,-10.46828 c 0,0 2.26434,2.25469 3.42287,3.39715 22.28945,-20.18041 7.54954,-26.00388 -0.16164,-27.02624"
       style="fill:none;fill-opacity:1;stroke:#0000ff;stroke-width:0.25;stroke-linecap:round;stroke-linejoin:round;stroke-miterlimit:4;stroke-dasharray:none" />
    <path
       style="fill:none;fill-opacity:1;stroke:#0000ff;stroke-width:0.25;stroke-linecap:round;stroke-linejoin:round;stroke-miterlimit:4;stroke-dasharray:none"
       d="m 38.938412,-128.75954 -3.284379,3.24585 10.418792,3.61419 -3.468273,-10.46828 c 0,0 -2.264339,2.25469 -3.422868,3.39715 -14.351955,-13.75481 -15.581543,-21.18469 -10.138218,-26.83726"
       id="path2372"
       inkscape:connector-curvature="0"
       sodipodi:nodetypes="cccccc" />
    <text
       id="text2376"
       y="-187.56548"
       x="161.01785"
       style="font-style:normal;font-variant:normal;font-weight:normal;font-stretch:normal;font-size:10.5833px;line-height:1.25;font-family:'Machine Tool Gothic';-inkscape-font-specification:'Machine Tool Gothic';letter-spacing:0px;word-spacing:0px;fill:none;fill-opacity:1;stroke:#000000;stroke-width:0.264583"
       xml:space="preserve" />
    <path
       sodipodi:nodetypes="cccc"
       d="m 43.360989,-155.86006 v -5.84471 l -2.7842,4.37822 h 3.56208"
       style="font-style:normal;font-variant:normal;font-weight:normal;font-stretch:normal;font-size:8.70542717px;line-height:1.25;font-family:'Machine Tool Gothic';-inkscape-font-specification:'Machine Tool Gothic';letter-spacing:0px;word-spacing:0px;fill:none;fill-opacity:1;stroke:#0000ff;stroke-width:0.26499999;stroke-linejoin:round;stroke-miterlimit:4;stroke-dasharray:none"
       id="path80"
       inkscape:connector-curvature="0" />
    <path
       sodipodi:nodetypes="ccscsccscscc"
       d="m 454.64947,-160.44436 c 0.24087,-0.37973 0.43641,-0.63336 0.5866,-0.76088 0.23521,-0.2012 0.53701,-0.3018 0.9054,-0.3018 0.37406,0 0.70136,0.12327 0.98191,0.36981 0.28905,0.25505 0.43357,0.56818 0.43357,0.93941 0,0.37406 -0.15444,0.68578 -0.46333,0.93515 -0.26921,0.22104 -0.60218,0.35706 -0.99891,0.40807 1.22703,0.19837 1.84055,0.69428 1.84055,1.48774 0,0.6036 -0.19412,1.06693 -0.58235,1.38998 -0.35989,0.30038 -0.84588,0.45057 -1.45798,0.45057 -0.34856,0 -0.65319,-0.13319 -0.9139,-0.39956 -0.17287,-0.17853 -0.35848,-0.46475 -0.55685,-0.85864"
       style="font-style:normal;font-variant:normal;font-weight:normal;font-stretch:normal;font-size:8.70542717px;line-height:1.25;font-family:'Machine Tool Gothic';-inkscape-font-specification:'Machine Tool Gothic';letter-spacing:0px;word-spacing:0px;fill:none;fill-opacity:1;stroke:#0000ff;stroke-width:0.26499999;stroke-linejoin:round;stroke-miterlimit:4;stroke-dasharray:none"
       id="path78"
       inkscape:connector-curvature="0" />
    <path
       sodipodi:nodetypes="cccccccccccccc"
       d="m 454.08928,250.9516 c 0.0312,-0.14169 0.10488,-0.36273 0.22104,-0.66311 0.11335,-0.19837 0.25079,-0.36556 0.41232,-0.50158 0.13885,-0.11902 0.29755,-0.21537 0.47608,-0.28905 0.18136,-0.0737 0.36981,-0.11477 0.56534,-0.12327 0.21537,-0.0113 0.42507,0.0198 0.6291,0.0935 0.21821,0.0793 0.40807,0.19553 0.5696,0.34855 0.15302,0.14736 0.27912,0.32731 0.37831,0.53984 0.0992,0.2097 0.1516,0.40807 0.15727,0.5951 0.006,0.16436 -0.0252,0.35422 -0.0935,0.56959 -0.0453,0.14453 -0.0737,0.22812 -0.085,0.25079 -0.0311,0.0822 -0.0765,0.15586 -0.13602,0.22104 l -2.93298,3.24328 h 3.37505"
       style="font-style:normal;font-variant:normal;font-weight:normal;font-stretch:normal;font-size:8.70542717px;line-height:1.25;font-family:'Machine Tool Gothic';-inkscape-font-specification:'Machine Tool Gothic';letter-spacing:0px;word-spacing:0px;fill:none;fill-opacity:1;stroke:#0000ff;stroke-width:0.26499999;stroke-linejoin:round;stroke-miterlimit:4;stroke-dasharray:none"
       id="path76"
       inkscape:connector-curvature="0" />
    <path
       sodipodi:nodetypes="ccc"
       d="m 42.35461,252.06795 2.38804,-2.74033 v 5.67468"
       style="font-style:normal;font-variant:normal;font-weight:normal;font-stretch:normal;font-size:8.70542717px;line-height:1.25;font-family:'Machine Tool Gothic';-inkscape-font-specification:'Machine Tool Gothic';letter-spacing:0px;word-spacing:0px;fill:none;fill-opacity:1;stroke:#0000ff;stroke-width:0.26499999;stroke-linejoin:round;stroke-miterlimit:4;stroke-dasharray:none"
       id="path74"
       inkscape:connector-curvature="0" />
    <path
       sodipodi:nodetypes="cccccc"
       inkscape:connector-curvature="0"
       id="path965"
       d="m 23.16951,238.83159 -3.284379,3.24585 10.418792,3.61419 -3.468273,-10.46828 c 0,0 -2.264339,2.25469 -3.422868,3.39715 -8.304336,-7.8017 -3.864281,-13.71966 -3.523635,-15.78146"
       style="fill:none;fill-opacity:1;stroke:#0000ff;stroke-width:0.25;stroke-linecap:round;stroke-linejoin:round;stroke-miterlimit:4;stroke-dasharray:none" />
    <path
       style="fill:none;fill-opacity:1;stroke:#0000ff;stroke-width:0.25;stroke-linecap:round;stroke-linejoin:round;stroke-miterlimit:4;stroke-dasharray:none"
       d="m 436.747,273.43232 1.07897,4.48982 8.48248,-7.04705 -10.753,-2.44679 c 0,0 0.75814,3.1042 1.13676,4.68663 -131.53249,11.91366 -259.33272,10.76438 -385.176437,2.76735"
       id="path967"
       inkscape:connector-curvature="0"
       sodipodi:nodetypes="cccccc" />
    <g
       style="stroke-width:1.14542627;stroke:#0000ff"
       transform="matrix(0,-0.76219433,1,0,-252.15883,284.22999)"
       id="g1042">
      <path
         inkscape:connector-curvature="0"
         id="path969"
         style="font-style:normal;font-variant:normal;font-weight:normal;font-stretch:normal;font-size:10.58333302px;line-height:1.25;font-family:'Machine Tool Gothic';-inkscape-font-specification:'Machine Tool Gothic';letter-spacing:0px;word-spacing:0px;fill:none;fill-opacity:1;stroke:#0000ff;stroke-width:0.30306068;stroke-linecap:round;stroke-linejoin:round"
         d="m 89.130461,272.52727 2.07035,-2.45039 v 5.88963"
         sodipodi:nodetypes="ccc" />
      <path
         inkscape:connector-curvature="0"
         id="path971"
         style="font-style:normal;font-variant:normal;font-weight:normal;font-stretch:normal;font-size:10.58333302px;line-height:1.25;font-family:'Machine Tool Gothic';-inkscape-font-specification:'Machine Tool Gothic';letter-spacing:0px;word-spacing:0px;fill:none;fill-opacity:1;stroke:#0000ff;stroke-width:0.30306068;stroke-linecap:round;stroke-linejoin:round"
         d="m 94.350769,271.5195 c 0.03235,-0.14705 0.108819,-0.37646 0.229409,-0.68822 0.117644,-0.20588 0.260289,-0.3794 0.427935,-0.52058 0.144116,-0.12353 0.308819,-0.22353 0.494111,-0.3 0.188232,-0.0765 0.383818,-0.11912 0.586757,-0.12794 0.223526,-0.0118 0.44117,0.0206 0.652932,0.0971 0.226467,0.0824 0.423523,0.20294 0.591168,0.36176 0.158822,0.15294 0.289703,0.3397 0.392642,0.56028 0.10294,0.21765 0.157351,0.42353 0.163233,0.61764 0.0059,0.17059 -0.02647,0.36765 -0.09706,0.59118 -0.04706,0.14999 -0.07647,0.23676 -0.08823,0.26029 -0.03235,0.0853 -0.07941,0.16176 -0.141175,0.22941 l -3.044076,3.36613 h 3.502893"
         sodipodi:nodetypes="cccccccccccccc" />
      <path
         inkscape:connector-curvature="0"
         id="path973"
         style="font-style:normal;font-variant:normal;font-weight:normal;font-stretch:normal;font-size:10.58333302px;line-height:1.25;font-family:'Machine Tool Gothic';-inkscape-font-specification:'Machine Tool Gothic';letter-spacing:0px;word-spacing:0px;fill:none;fill-opacity:1;stroke:#0000ff;stroke-width:0.30306068;stroke-linecap:round;stroke-linejoin:round"
         d="m 99.521287,275.97533 v -4.2573 z m 3.370543,0 c 0,-1.67351 -0.003,-2.50144 -0.009,-2.48379 -0.0147,-0.39999 -0.11176,-0.79558 -0.29117,-1.18675 -0.2,-0.43529 -0.60146,-0.65294 -1.2044,-0.65294 -0.51764,0 -0.95293,0.22942 -1.30586,0.68824 -0.297057,0.38822 -0.483818,0.8588 -0.560288,1.41174 m 6.617548,2.2235 v -2.65585 c 0,-0.43528 -0.10294,-0.81175 -0.30881,-1.12939 -0.23823,-0.3647 -0.5647,-0.54705 -0.9794,-0.54705 -0.77647,0 -1.36028,0.39117 -1.75145,1.17351 -0.14706,0.29411 -0.21911,0.54264 -0.21617,0.74557"
         sodipodi:nodetypes="ccccccscccscscc" />
      <path
         inkscape:connector-curvature="0"
         id="path977"
         style="font-style:normal;font-variant:normal;font-weight:normal;font-stretch:normal;font-size:10.58333302px;line-height:1.25;font-family:'Machine Tool Gothic';-inkscape-font-specification:'Machine Tool Gothic';letter-spacing:0px;word-spacing:0px;fill:none;fill-opacity:1;stroke:#0000ff;stroke-width:0.30306068;stroke-linecap:round;stroke-linejoin:round"
         d="m 120.41071,272.76802 q 2.01174,0.3397 2.01174,1.64557 0,0.89557 -0.89999,1.29263 -0.65293,0.28675 -1.64998,0.26911 l -0.72793,-0.009 v -5.92051 l 0.53822,-0.009 q 2.17939,-0.0485 2.17939,1.27057 0,0.52058 -0.44117,0.9838 -0.44999,0.47647 -0.97058,0.47647 h -1.30145 z" />
      <path
         inkscape:connector-curvature="0"
         id="path979"
         style="font-style:normal;font-variant:normal;font-weight:normal;font-stretch:normal;font-size:10.58333302px;line-height:1.25;font-family:'Machine Tool Gothic';-inkscape-font-specification:'Machine Tool Gothic';letter-spacing:0px;word-spacing:0px;fill:none;fill-opacity:1;stroke:#0000ff;stroke-width:0.30306068;stroke-linecap:round;stroke-linejoin:round"
         d="m 124.03713,273.76506 q 0,-0.86469 0.65735,-1.5088 0.65734,-0.64411 1.51763,-0.64411 0.89116,0 1.52644,0.69705 0.61323,0.67499 0.61323,1.57498 0,0.89999 -0.61764,1.55733 -0.63087,0.67058 -1.53086,0.67058 -0.97058,0 -1.5794,-0.69705 -0.58675,-0.66616 -0.58675,-1.64998 z" />
      <path
         inkscape:connector-curvature="0"
         id="path981"
         style="font-style:normal;font-variant:normal;font-weight:normal;font-stretch:normal;font-size:10.58333302px;line-height:1.25;font-family:'Machine Tool Gothic';-inkscape-font-specification:'Machine Tool Gothic';letter-spacing:0px;word-spacing:0px;fill:none;fill-opacity:1;stroke:#0000ff;stroke-width:0.30306068;stroke-linecap:round;stroke-linejoin:round"
         d="m 130.16499,269.91364 v 6.06169 z m 0,3.25144 c 0.19706,-0.43823 0.47941,-0.8 0.84705,-1.08528 0.39705,-0.30588 0.82204,-0.45882 1.27498,-0.45882 0.28823,0 0.54852,0.0868 0.78087,0.26029 0.22353,0.1647 0.3897,0.38529 0.49853,0.66175 0.0706,0.17941 0.11911,0.44411 0.14558,0.79411 l 0.004,2.6382"
         sodipodi:nodetypes="cccccscccc" />
      <path
         inkscape:connector-curvature="0"
         id="path983"
         style="font-style:normal;font-variant:normal;font-weight:normal;font-stretch:normal;font-size:10.58333302px;line-height:1.25;font-family:'Machine Tool Gothic';-inkscape-font-specification:'Machine Tool Gothic';letter-spacing:0px;word-spacing:0px;fill:none;fill-opacity:1;stroke:#0000ff;stroke-width:0.30306068;stroke-linecap:round;stroke-linejoin:round"
         d="m 135.35757,275.94003 v -4.222 z m 1.79997,-4.28818 c -0.10294,-0.0294 -0.18823,-0.0441 -0.25587,-0.0441 -0.0794,0 -0.18382,0.0294 -0.31324,0.0882 -0.42058,0.19117 -0.72793,0.51029 -0.92204,0.95734 -0.12647,0.29118 -0.22941,0.73234 -0.30882,1.32351"
         sodipodi:nodetypes="ccccsccc" />
      <path
         inkscape:connector-curvature="0"
         id="path985"
         style="font-style:normal;font-variant:normal;font-weight:normal;font-stretch:normal;font-size:10.58333302px;line-height:1.25;font-family:'Machine Tool Gothic';-inkscape-font-specification:'Machine Tool Gothic';letter-spacing:0px;word-spacing:0px;fill:none;fill-opacity:1;stroke:#0000ff;stroke-width:0.30306068;stroke-linecap:round;stroke-linejoin:round"
         d="m 138.32665,271.68715 v 2.43967 c 0,0.60588 0.14558,1.07793 0.43675,1.41616 0.31176,0.36176 0.76764,0.54264 1.36763,0.54264 1.16469,0 1.74704,-0.69117 1.74704,-2.0735 v -2.32497"
         sodipodi:nodetypes="cscssc" />
      <path
         inkscape:connector-curvature="0"
         id="path987"
         style="font-style:normal;font-variant:normal;font-weight:normal;font-stretch:normal;font-size:10.58333302px;line-height:1.25;font-family:'Machine Tool Gothic';-inkscape-font-specification:'Machine Tool Gothic';letter-spacing:0px;word-spacing:0px;fill:none;fill-opacity:1;stroke:#0000ff;stroke-width:0.30306068;stroke-linecap:round;stroke-linejoin:round"
         d="m 143.85451,275.97533 v -4.2573 z m 3.59995,0 v -2.22792 c 0,-0.57351 -0.0971,-1.0441 -0.29116,-1.41174 -0.25,-0.47352 -0.63676,-0.71028 -1.16028,-0.71028 -0.57058,0 -1.03529,0.18088 -1.39411,0.54264 -0.28528,0.28529 -0.53675,0.72498 -0.7544,1.31909"
         sodipodi:nodetypes="ccccscscc" />
      <path
         inkscape:connector-curvature="0"
         id="path989"
         style="font-style:normal;font-variant:normal;font-weight:normal;font-stretch:normal;font-size:10.58333302px;line-height:1.25;font-family:'Machine Tool Gothic';-inkscape-font-specification:'Machine Tool Gothic';letter-spacing:0px;word-spacing:0px;fill:none;fill-opacity:1;stroke:#0000ff;stroke-width:0.30306068;stroke-linecap:round;stroke-linejoin:round"
         d="m 149.34709,276.92385 c 0.21176,0.3647 0.48675,0.61763 0.82499,0.75881 0.30881,0.12941 0.73969,0.19412 1.29263,0.19412 0.57645,0 1.0588,-0.19265 1.44703,-0.57794 0.39117,-0.38529 0.58676,-0.86616 0.58676,-1.44263 v -4.1073 m 0.004,2.31174 c 0,0.52353 -0.22647,0.9794 -0.67941,1.36763 -0.43823,0.37646 -0.92646,0.56469 -1.46468,0.56469 -0.60588,0 -1.12646,-0.21029 -1.56174,-0.63087 -0.43235,-0.42058 -0.64853,-0.93381 -0.64853,-1.53969 0,-0.55881 0.21323,-1.06322 0.6397,-1.51321 0.42941,-0.45293 0.92205,-0.6794 1.47792,-0.6794 0.42058,0 0.82352,0.10883 1.20881,0.32646 0.40588,0.22942 0.69411,0.52794 0.86469,0.89558 0.10882,0.23236 0.16324,0.63529 0.16324,1.20881 z"
         sodipodi:nodetypes="ccscscscscscsccs" />
      <path
         sodipodi:nodetypes="ccccccscccscscc"
         d="m 107.99617,275.97533 v -4.2573 z m 3.37055,0 c 0,-1.67351 -0.003,-2.50144 -0.009,-2.48379 -0.0147,-0.39999 -0.11176,-0.79558 -0.29117,-1.18675 -0.2,-0.43529 -0.60146,-0.65294 -1.20439,-0.65294 -0.51765,0 -0.95293,0.22942 -1.30587,0.68824 -0.29706,0.38822 -0.48381,0.8588 -0.56028,1.41174 m 6.61755,2.2235 v -2.65585 c 0,-0.43528 -0.10294,-0.81175 -0.30881,-1.12939 -0.23823,-0.3647 -0.5647,-0.54705 -0.97941,-0.54705 -0.77646,0 -1.36027,0.39117 -1.75145,1.17351 -0.14705,0.29411 -0.21911,0.54264 -0.21617,0.74557"
         style="font-style:normal;font-variant:normal;font-weight:normal;font-stretch:normal;font-size:10.58333302px;line-height:1.25;font-family:'Machine Tool Gothic';-inkscape-font-specification:'Machine Tool Gothic';letter-spacing:0px;word-spacing:0px;fill:none;fill-opacity:1;stroke:#0000ff;stroke-width:0.30306068;stroke-linecap:round;stroke-linejoin:round"
         id="path1003"
         inkscape:connector-curvature="0" />
      <text
         transform="matrix(0,0.87303741,-1.1454263,0,0,0)"
         id="text78"
         y="-15.610303"
         x="507.41156"
         style="font-style:normal;font-weight:normal;font-size:12.1224px;line-height:1.25;font-family:sans-serif;fill:#008080;fill-opacity:1;stroke:none;stroke-width:0.347134;"
         xml:space="preserve"><tspan
           style="stroke-width:0.347134;fill:#008080;"
           y="-15.610303"
           x="507.41156"
           id="tspan76"
           sodipodi:role="line">MinutesFirstClock</tspan></text>
    </g>
    <path
       sodipodi:nodetypes="cccccc"
       inkscape:connector-curvature="0"
       id="path1050"
       d="m 479.13148,-143.01833 4.48982,-1.07897 -7.04705,-8.48248 -2.44679,10.753 c 0,0 3.1042,-0.75814 4.68663,-1.13676 11.91366,131.532494 10.76438,259.33272 2.76735,385.17644"
       style="fill:none;fill-opacity:1;stroke:#0000ff;stroke-width:0.25;stroke-linecap:round;stroke-linejoin:round;stroke-miterlimit:4;stroke-dasharray:none" />
    <path
       style="fill:none;fill-opacity:1;stroke:#0000ff;stroke-width:0.25;stroke-linecap:round;stroke-linejoin:round;stroke-miterlimit:4;stroke-dasharray:none"
       d="m 65.353529,-178.98835 -1.07897,-4.48982 -8.48248,7.04705 10.753,2.44679 c 0,0 -0.75814,-3.1042 -1.13676,-4.68663 131.532491,-11.91366 259.332721,-10.76438 385.176441,-2.76735"
       id="path1052"
       inkscape:connector-curvature="0"
       sodipodi:nodetypes="cccccc" />
  </g>
</svg>
