<?xml version="1.0" encoding="UTF-8" standalone="no"?>
<svg
   xmlns:dc="http://purl.org/dc/elements/1.1/"
   xmlns:cc="http://creativecommons.org/ns#"
   xmlns:rdf="http://www.w3.org/1999/02/22-rdf-syntax-ns#"
   xmlns:svg="http://www.w3.org/2000/svg"
   xmlns="http://www.w3.org/2000/svg"
   xmlns:sodipodi="http://sodipodi.sourceforge.net/DTD/sodipodi-0.dtd"
   xmlns:inkscape="http://www.inkscape.org/namespaces/inkscape"
   width="210mm"
   height="297mm"
   viewBox="0 0 210 297"
   version="1.1"
   id="svg8"
   inkscape:version="1.0 (4035a4fb49, 2020-05-01)"
   sodipodi:docname="Schriftart-Test.svg">
  <defs
     id="defs2" />
  <sodipodi:namedview
     inkscape:object-nodes="true"
     inkscape:snap-intersection-paths="true"
     inkscape:snap-center="true"
     id="base"
     pagecolor="#ffffff"
     bordercolor="#666666"
     borderopacity="1.0"
     inkscape:pageopacity="0.0"
     inkscape:pageshadow="2"
     inkscape:zoom="0.98994949"
     inkscape:cx="169.40808"
     inkscape:cy="-55.38871"
     inkscape:document-units="mm"
     inkscape:current-layer="layer1"
     inkscape:document-rotation="0"
     showgrid="false"
     inkscape:window-width="2560"
     inkscape:window-height="1387"
     inkscape:window-x="1912"
     inkscape:window-y="-8"
     inkscape:window-maximized="1"
     inkscape:snap-global="true" />
  <metadata
     id="metadata5">
    <rdf:RDF>
      <cc:Work
         rdf:about="">
        <dc:format>image/svg+xml</dc:format>
        <dc:type
           rdf:resource="http://purl.org/dc/dcmitype/StillImage" />
        <dc:title />
      </cc:Work>
    </rdf:RDF>
  </metadata>
  <g
     inkscape:label="Ebene 1"
     inkscape:groupmode="layer"
     id="layer1">
    <path
       transform="scale(0.26458333)"
       d="M 25.824219 90.335938 L 14.6875 120.71484 L 19.462891 120.71484 L 27.787109 97.205078 L 32.394531 110.6875 L 27.900391 110.6875 L 26.509766 114.61328 L 33.673828 114.61328 L 35.765625 120.71484 L 40.671875 120.71484 L 29.535156 90.335938 L 25.824219 90.335938 z "
       style="font-style:normal;font-variant:normal;font-weight:normal;font-stretch:normal;font-size:11.2889px;line-height:1.25;font-family:DIN;-inkscape-font-specification:DIN;fill:#000000;fill-opacity:1;stroke:none;stroke-width:0.999999"
       id="path64" />
    <path
       transform="scale(0.26458333)"
       d="M 47.669922 82.570312 L 47.669922 87.177734 L 51.59375 87.177734 L 51.59375 82.570312 L 47.669922 82.570312 z M 56.884766 82.570312 L 56.884766 87.177734 L 60.810547 87.177734 L 60.810547 82.570312 L 56.884766 82.570312 z M 52.490234 90.335938 L 41.355469 120.71484 L 46.203125 120.71484 L 49.722656 110.6875 L 49.716797 110.6875 L 54.453125 97.205078 L 59.060547 110.6875 L 54.605469 110.6875 L 53.228516 114.61328 L 60.341797 114.61328 L 62.431641 120.71484 L 67.337891 120.71484 L 56.203125 90.335938 L 52.490234 90.335938 z "
       style="font-style:normal;font-variant:normal;font-weight:normal;font-stretch:normal;font-size:11.2889px;line-height:1.25;font-family:DIN;-inkscape-font-specification:DIN;fill:#000000;fill-opacity:1;stroke:none;stroke-width:0.999999"
       id="path66" />
    <path
       transform="scale(0.26458333)"
       d="M 71.648438 90.335938 L 71.648438 94.474609 L 76.255859 94.474609 L 83.082031 94.474609 L 83.589844 94.474609 L 83.589844 94.507812 C 84.831096 94.585996 85.865158 94.933289 86.666016 95.583984 C 87.576239 96.323542 88.03125 97.403948 88.03125 98.826172 C 88.03125 100.2484 87.576239 101.3288 86.666016 102.06836 C 85.865158 102.71906 84.831096 103.06635 83.589844 103.14453 L 83.589844 103.17773 L 83.082031 103.17773 L 76.255859 103.17773 L 71.648438 103.17773 L 71.648438 107.31641 L 76.255859 107.31641 L 83.509766 107.31641 L 83.589844 107.31641 L 83.589844 107.32227 C 85.169576 107.33698 86.382299 107.75925 87.220703 108.59766 C 88.074037 109.45099 88.501953 110.56045 88.501953 111.92578 C 88.501953 113.29112 88.074037 114.41314 87.220703 115.29492 C 86.382299 116.13333 85.169576 116.5556 83.589844 116.57031 L 83.589844 116.57617 L 83.509766 116.57617 L 76.255859 116.57617 L 71.648438 116.57617 L 71.648438 120.71484 L 83.935547 120.71484 C 85.272439 120.71484 86.496135 120.52994 87.605469 120.16016 C 88.743248 119.79038 89.709415 119.25017 90.505859 118.53906 C 91.330749 117.7995 91.970668 116.90205 92.425781 115.84961 C 92.880892 114.76872 93.109375 113.53245 93.109375 112.13867 C 93.109375 111.17156 92.980609 110.30316 92.724609 109.53516 C 92.468609 108.76715 92.12784 108.10014 91.701172 107.53125 C 91.274506 106.96236 90.790445 106.4783 90.25 106.08008 C 89.709555 105.65341 89.142256 105.32521 88.544922 105.09766 C 89.056922 104.89855 89.553554 104.61392 90.037109 104.24414 C 90.520665 103.84592 90.946627 103.37834 91.316406 102.83789 C 91.71463 102.269 92.028304 101.64165 92.255859 100.95898 C 92.511859 100.24787 92.640625 99.481139 92.640625 98.65625 C 92.640625 96.067803 91.815795 94.0338 90.166016 92.554688 C 88.544679 91.075577 86.311244 90.335937 83.466797 90.335938 L 71.648438 90.335938 z "
       style="font-style:normal;font-variant:normal;font-weight:normal;font-stretch:normal;font-size:11.2889px;line-height:1.25;font-family:DIN;-inkscape-font-specification:DIN;fill:#000000;fill-opacity:1;stroke:none;stroke-width:0.999999"
       id="path68" />
    <path
       d="m 31.895188,29.534454 h -1.23049 q -0.146756,0.6096 -0.553156,0.993423 -0.406401,0.383823 -1.083735,0.383823 -0.361244,0 -0.666045,-0.124178 -0.3048,-0.135467 -0.519289,-0.361245 -0.146756,-0.158045 -0.248356,-0.338667 -0.09031,-0.191911 -0.146756,-0.462845 -0.04516,-0.282222 -0.06773,-0.688623 -0.02258,-0.4064 -0.02258,-1.016001 0,-0.609601 0.02258,-1.016001 0.02258,-0.4064 0.06773,-0.677334 0.05645,-0.282222 0.146756,-0.462845 0.1016,-0.191911 0.248356,-0.349956 0.214489,-0.225778 0.519289,-0.349956 0.304801,-0.135466 0.666045,-0.135466 0.677334,0 1.072446,0.383822 0.4064,0.383823 0.553156,0.993423 h 1.241779 q -0.214489,-1.207912 -0.982134,-1.84009 -0.767645,-0.632179 -1.885247,-0.632179 -0.632178,0 -1.162756,0.225778 -0.530579,0.214489 -0.948268,0.632179 -0.293511,0.293511 -0.451556,0.620889 -0.158045,0.327378 -0.237067,0.711201 -0.06773,0.383822 -0.07902,0.857956 -0.01129,0.462845 -0.01129,1.038579 0,0.575734 0.01129,1.049868 0.01129,0.462845 0.07902,0.846667 0.07902,0.383823 0.237067,0.711201 0.158045,0.327378 0.451556,0.62089 0.417689,0.417689 0.948268,0.643467 0.530578,0.214489 1.162756,0.214489 0.541868,0 1.016001,-0.158045 0.485423,-0.158044 0.857957,-0.474133 0.383823,-0.31609 0.632178,-0.778935 0.259645,-0.462844 0.361245,-1.061156 z"
       style="font-style:normal;font-variant:normal;font-weight:normal;font-stretch:normal;font-size:11.2889px;line-height:1.25;font-family:DIN;-inkscape-font-specification:DIN;fill:#000000;fill-opacity:1;stroke:none;stroke-width:0.264583"
       id="path70" />
    <path
       transform="scale(0.26458333)"
       d="M 126.73047 90.335938 L 126.73047 111.9668 L 131.33984 111.9668 L 131.33984 94.474609 L 136.92969 94.474609 C 139.11991 94.474609 140.84024 95.15615 142.0918 96.521484 C 142.88824 97.403263 143.35778 98.570816 143.5 100.02148 C 143.64224 101.44371 143.71289 103.20761 143.71289 105.3125 C 143.71289 107.41739 143.64224 109.26453 143.5 110.85742 C 143.35779 112.42187 142.88825 113.64556 142.0918 114.52734 C 140.84024 115.89268 139.11991 116.57617 136.92969 116.57617 L 131.33984 116.57617 L 126.73047 116.57617 L 126.73047 120.71484 L 137.39844 120.71484 C 138.99133 120.71484 140.45608 120.48636 141.79297 120.03125 C 143.12986 119.54769 144.28093 118.82258 145.24805 117.85547 C 146.07294 117.03058 146.70028 116.12056 147.12695 115.125 C 147.55362 114.12944 147.85082 113.09066 148.02148 112.00977 C 148.19214 110.92888 148.27734 109.81942 148.27734 108.68164 C 148.30579 107.54386 148.32031 106.42183 148.32031 105.3125 C 148.32031 104.20316 148.30579 103.10628 148.27734 102.02539 C 148.27734 100.9445 148.19214 99.893141 148.02148 98.869141 C 147.85083 97.816693 147.55363 96.821478 147.12695 95.882812 C 146.70028 94.915699 146.07294 94.018249 145.24805 93.193359 C 144.28093 92.226246 143.12986 91.515657 141.79297 91.060547 C 140.45608 90.576992 138.99133 90.335938 137.39844 90.335938 L 126.73047 90.335938 z "
       style="font-style:normal;font-variant:normal;font-weight:normal;font-stretch:normal;font-size:11.2889px;line-height:1.25;font-family:DIN;-inkscape-font-specification:DIN;fill:#000000;fill-opacity:1;stroke:none;stroke-width:0.999999"
       id="path72" />
    <path
       d="m 46.186054,31.93899 v -1.095024 h -3.917248 v -2.415824 h 3.341514 v -1.083735 h -3.341514 v -2.348091 h 3.917248 v -1.095023 h -5.136449 v 8.037697 z"
       style="font-style:normal;font-variant:normal;font-weight:normal;font-stretch:normal;font-size:11.2889px;line-height:1.25;font-family:DIN;-inkscape-font-specification:DIN;fill:#000000;fill-opacity:1;stroke:none;stroke-width:0.264583"
       id="path74" />
    <path
       d="m 52.999081,24.996316 v -1.095023 h -5.13645 v 8.037697 h 1.219201 v -3.397959 h 3.341515 v -1.095024 h -3.341515 v -2.449691 z"
       style="font-style:normal;font-variant:normal;font-weight:normal;font-stretch:normal;font-size:11.2889px;line-height:1.25;font-family:DIN;-inkscape-font-specification:DIN;fill:#000000;fill-opacity:1;stroke:none;stroke-width:0.264583"
       id="path76" />
    <path
       d="m 59.785649,28.823253 v -1.23049 h -2.935114 v 1.038579 h 1.715912 v 0.451556 q 0,0.395111 -0.09031,0.699912 -0.09031,0.3048 -0.316089,0.564445 -0.237067,0.270933 -0.575734,0.417689 -0.338667,0.146756 -0.733778,0.146756 -0.361245,0 -0.666045,-0.124178 -0.304801,-0.135467 -0.51929,-0.361245 -0.146756,-0.158045 -0.248356,-0.338667 -0.09031,-0.191911 -0.146755,-0.462845 -0.04516,-0.282222 -0.06773,-0.688623 -0.02258,-0.4064 -0.02258,-1.016001 0,-0.609601 0.02258,-1.004712 0.02258,-0.4064 0.06773,-0.677334 0.05644,-0.282223 0.146755,-0.462845 0.1016,-0.191911 0.248356,-0.349956 0.214489,-0.225778 0.51929,-0.361245 0.3048,-0.135466 0.666045,-0.135466 0.677334,0 1.106312,0.372533 0.428978,0.361245 0.587023,1.02729 h 1.23049 q -0.09031,-0.519289 -0.316089,-0.970845 -0.225778,-0.451556 -0.598312,-0.790223 -0.361245,-0.338667 -0.869245,-0.530579 -0.496712,-0.2032 -1.140179,-0.2032 -0.643468,0 -1.174046,0.225778 -0.519289,0.214489 -0.936979,0.632179 -0.293511,0.293511 -0.451556,0.620889 -0.158044,0.327378 -0.237067,0.711201 -0.06773,0.383822 -0.07902,0.857956 -0.01129,0.462845 -0.01129,1.038579 0,0.575734 0.01129,1.049868 0.01129,0.462845 0.07902,0.846667 0.07902,0.383823 0.237067,0.711201 0.158045,0.327378 0.451556,0.62089 0.41769,0.417689 0.948268,0.643467 0.530578,0.214489 1.162757,0.214489 0.643467,0 1.196623,-0.214489 0.553156,-0.214489 1.016001,-0.699912 0.395112,-0.428978 0.553156,-0.959556 0.169334,-0.530579 0.169334,-1.309513 z"
       style="font-style:normal;font-variant:normal;font-weight:normal;font-stretch:normal;font-size:11.2889px;line-height:1.25;font-family:DIN;-inkscape-font-specification:DIN;fill:#000000;fill-opacity:1;stroke:none;stroke-width:0.264583"
       id="path78" />
    <path
       d="m 67.277778,31.93899 v -8.037697 h -1.219201 v 3.431825 h -3.262492 v -3.431825 h -1.219202 v 8.037697 h 1.219202 v -3.510848 h 3.262492 v 3.510848 z"
       style="font-style:normal;font-variant:normal;font-weight:normal;font-stretch:normal;font-size:11.2889px;line-height:1.25;font-family:DIN;-inkscape-font-specification:DIN;fill:#000000;fill-opacity:1;stroke:none;stroke-width:0.264583"
       id="path80" />
    <path
       d="M 70.601302,31.93899 V 23.901293 H 69.382101 V 31.93899 Z"
       style="font-style:normal;font-variant:normal;font-weight:normal;font-stretch:normal;font-size:11.2889px;line-height:1.25;font-family:DIN;-inkscape-font-specification:DIN;fill:#000000;fill-opacity:1;stroke:none;stroke-width:0.264583"
       id="path82" />
    <path
       d="m 76.436776,29.398987 v -5.497694 h -1.219201 v 5.407383 q 0,0.790223 -0.395111,1.196623 -0.383823,0.406401 -1.061157,0.406401 -0.440267,0 -0.688623,-0.135467 -0.237067,-0.135467 -0.451556,-0.349956 l -0.812801,0.801512 q 0.41769,0.417689 0.869246,0.598312 0.462844,0.180622 1.083734,0.180622 0.553156,0 1.038579,-0.169333 0.485423,-0.180623 0.846667,-0.508001 0.372534,-0.327378 0.575734,-0.812801 0.214489,-0.485423 0.214489,-1.117601 z"
       style="font-style:normal;font-variant:normal;font-weight:normal;font-stretch:normal;font-size:11.2889px;line-height:1.25;font-family:DIN;-inkscape-font-specification:DIN;fill:#000000;fill-opacity:1;stroke:none;stroke-width:0.264583"
       id="path84" />
    <path
       d="m 84.687381,31.93899 -2.87867,-4.888094 2.607736,-3.149603 h -1.490135 l -3.28507,4.041426 v -4.041426 h -1.219201 v 8.037697 h 1.219201 v -2.336803 l 1.354668,-1.625601 2.25778,3.962404 z"
       style="font-style:normal;font-variant:normal;font-weight:normal;font-stretch:normal;font-size:11.2889px;line-height:1.25;font-family:DIN;-inkscape-font-specification:DIN;fill:#000000;fill-opacity:1;stroke:none;stroke-width:0.264583"
       id="path86" />
    <path
       d="M 90.943725,31.93899 V 30.843966 H 87.071632 V 23.901293 H 85.85243 v 8.037697 z"
       style="font-style:normal;font-variant:normal;font-weight:normal;font-stretch:normal;font-size:11.2889px;line-height:1.25;font-family:DIN;-inkscape-font-specification:DIN;fill:#000000;fill-opacity:1;stroke:none;stroke-width:0.264583"
       id="path88" />
    <path
       d="m 99.424152,31.93899 v -8.037697 h -1.219201 l -2.302936,5.000982 -2.348091,-5.000982 h -1.219201 v 8.037697 h 1.219201 v -5.373517 l 1.896535,3.917248 h 0.903112 l 1.85138,-3.917248 v 5.373517 z"
       style="font-style:normal;font-variant:normal;font-weight:normal;font-stretch:normal;font-size:11.2889px;line-height:1.25;font-family:DIN;-inkscape-font-specification:DIN;fill:#000000;fill-opacity:1;stroke:none;stroke-width:0.264583"
       id="path90" />
    <path
       d="m 107.55781,31.93899 v -8.037697 h -1.2192 v 5.64445 l -3.71405,-5.64445 h -1.1176 v 8.037697 h 1.2192 v -5.655739 l 3.71405,5.655739 z"
       style="font-style:normal;font-variant:normal;font-weight:normal;font-stretch:normal;font-size:11.2889px;line-height:1.25;font-family:DIN;-inkscape-font-specification:DIN;fill:#000000;fill-opacity:1;stroke:none;stroke-width:0.264583"
       id="path92" />
    <path
       transform="scale(0.26458333)"
       d="M 424.29492 90.080078 C 422.67358 90.080078 421.19432 90.364704 419.85742 90.933594 C 418.549 91.474038 417.36885 92.269818 416.31641 93.322266 C 415.57683 94.061821 415.00759 94.843079 414.60938 95.667969 C 414.21116 96.492858 413.91202 97.390309 413.71289 98.357422 C 413.54231 99.324532 413.44449 100.40494 413.41602 101.59961 C 413.38754 102.76583 413.37305 104.07472 413.37305 105.52539 C 413.37305 106.97606 413.38754 108.29752 413.41602 109.49219 C 413.44449 110.65841 413.54231 111.72625 413.71289 112.69336 C 413.91195 113.66047 414.21109 114.55597 414.60938 115.38086 C 415.00759 116.20575 415.57683 116.98896 416.31641 117.72852 C 416.55043 117.96254 416.79238 118.17856 417.03906 118.38867 L 419.01172 113.94922 C 418.95349 113.85694 418.88728 113.76858 418.83398 113.67383 C 418.60646 113.19027 418.42153 112.60845 418.2793 111.92578 C 418.16541 111.21467 418.08013 110.36079 418.02344 109.36523 C 417.99497 108.34123 417.98047 107.06139 417.98047 105.52539 C 417.98047 103.98939 417.99497 102.72407 418.02344 101.72852 C 418.08038 100.70452 418.16566 99.850637 418.2793 99.167969 C 418.42141 98.456856 418.60633 97.873079 418.83398 97.417969 C 419.08998 96.934413 419.4017 96.493927 419.77148 96.095703 C 420.31193 95.526814 420.96638 95.071803 421.73438 94.730469 C 422.53082 94.389137 423.38471 94.21875 424.29492 94.21875 C 425.20516 94.21875 426.0445 94.389137 426.8125 94.730469 C 427.02182 94.82018 427.22243 94.918008 427.41406 95.023438 L 429.14453 91.125 C 429.00663 91.062272 428.87349 90.990621 428.73242 90.933594 C 427.39553 90.364704 425.91626 90.080078 424.29492 90.080078 z M 431.5625 92.636719 L 429.55859 97.146484 C 429.60858 97.237856 429.66835 97.323328 429.71289 97.417969 C 429.96889 97.873079 430.15379 98.456856 430.26758 99.167969 C 430.40969 99.850637 430.49497 100.70452 430.52344 101.72852 C 430.58038 102.72407 430.60938 103.98939 430.60938 105.52539 C 430.60938 107.06139 430.58038 108.34123 430.52344 109.36523 C 430.49497 110.36079 430.40969 111.21467 430.26758 111.92578 C 430.15369 112.60845 429.96879 113.19027 429.71289 113.67383 C 429.48536 114.12894 429.18817 114.55685 428.81836 114.95508 C 428.27791 115.52397 427.60892 115.97898 426.8125 116.32031 C 426.0445 116.66165 425.20516 116.83203 424.29492 116.83203 C 423.38471 116.83203 422.53082 116.66165 421.73438 116.32031 C 421.53928 116.2336 421.35229 116.1385 421.17188 116.03711 L 419.43359 119.95117 C 419.57527 120.02006 419.71261 120.09719 419.85742 120.16016 C 421.19432 120.7006 422.67358 120.9707 424.29492 120.9707 C 425.91626 120.9707 427.39553 120.7006 428.73242 120.16016 C 430.06929 119.59127 431.26396 118.78096 432.31641 117.72852 C 433.05598 116.98896 433.62523 116.20575 434.02344 115.38086 C 434.42165 114.55597 434.70627 113.66047 434.87695 112.69336 C 435.04754 111.72625 435.14731 110.65841 435.17578 109.49219 C 435.20425 108.29752 435.2168 106.97606 435.2168 105.52539 C 435.2168 104.07472 435.20425 102.76583 435.17578 101.59961 C 435.14731 100.40494 435.04754 99.324532 434.87695 98.357422 C 434.70637 97.390309 434.42175 96.492858 434.02344 95.667969 C 433.62523 94.843079 433.05598 94.061821 432.31641 93.322266 C 432.07341 93.079268 431.82066 92.852422 431.5625 92.636719 z "
       style="font-style:normal;font-variant:normal;font-weight:normal;font-stretch:normal;font-size:11.2889px;line-height:1.25;font-family:DIN;-inkscape-font-specification:DIN;fill:#000000;fill-opacity:1;stroke:none;stroke-width:0.999999"
       id="path94" />
    <path
       transform="scale(0.26458333)"
       d="M 445.30664 82.570312 L 445.30664 87.177734 L 449.23242 87.177734 L 449.23242 82.570312 L 445.30664 82.570312 z M 454.52344 82.570312 L 454.52344 87.177734 L 458.44922 87.177734 L 458.44922 82.570312 L 454.52344 82.570312 z M 451.87891 90.080078 C 450.25756 90.080078 448.7783 90.364704 447.44141 90.933594 C 446.13296 91.474038 444.95284 92.269818 443.90039 93.322266 C 443.16084 94.061821 442.59157 94.843079 442.19336 95.667969 C 441.79512 96.492858 441.49598 97.390309 441.29688 98.357422 C 441.12629 99.324532 441.02652 100.40494 440.99805 101.59961 C 440.96957 102.76583 440.95508 104.07472 440.95508 105.52539 C 440.95508 106.97606 440.96957 108.29752 440.99805 109.49219 C 441.02652 110.65841 441.12629 111.72625 441.29688 112.69336 C 441.49593 113.66047 441.79507 114.55597 442.19336 115.38086 C 442.59157 116.20575 443.16084 116.98896 443.90039 117.72852 C 444.13441 117.96254 444.37637 118.17856 444.62305 118.38867 L 446.5957 113.94922 C 446.53748 113.85694 446.47126 113.76858 446.41797 113.67383 C 446.19044 113.19027 446.00554 112.60845 445.86328 111.92578 C 445.74964 111.21467 445.66437 110.36079 445.60742 109.36523 C 445.57895 108.34123 445.56445 107.06139 445.56445 105.52539 C 445.56445 103.98939 445.57895 102.72407 445.60742 101.72852 C 445.66437 100.70452 445.74964 99.850637 445.86328 99.167969 C 446.00539 98.456856 446.19029 97.873079 446.41797 97.417969 C 446.67397 96.934413 446.9857 96.493927 447.35547 96.095703 C 447.89592 95.526814 448.55036 95.071803 449.31836 94.730469 C 450.11481 94.389137 450.96867 94.21875 451.87891 94.21875 C 452.78912 94.21875 453.62848 94.389137 454.39648 94.730469 C 454.60611 94.820309 454.8042 94.919786 454.99609 95.025391 L 456.72852 91.125 C 456.59039 91.06216 456.45771 90.990715 456.31641 90.933594 C 454.97951 90.364704 453.50022 90.080078 451.87891 90.080078 z M 459.14648 92.636719 L 457.14258 97.146484 C 457.19256 97.237856 457.25234 97.323328 457.29688 97.417969 C 457.55288 97.873079 457.7378 98.456856 457.85156 99.167969 C 457.99367 99.850637 458.07895 100.70452 458.10742 101.72852 C 458.16437 102.72407 458.19336 103.98939 458.19336 105.52539 C 458.19336 107.06139 458.16437 108.34123 458.10742 109.36523 C 458.07895 110.36079 457.99367 111.21467 457.85156 111.92578 C 457.73792 112.60845 457.553 113.19027 457.29688 113.67383 C 457.06935 114.12894 456.7702 114.55685 456.40039 114.95508 C 455.85994 115.52397 455.19293 115.97898 454.39648 116.32031 C 453.62848 116.66165 452.78912 116.83203 451.87891 116.83203 C 450.96867 116.83203 450.11481 116.66165 449.31836 116.32031 C 449.12326 116.2336 448.93627 116.1385 448.75586 116.03711 L 447.01758 119.95117 C 447.15926 120.02006 447.29659 120.09719 447.44141 120.16016 C 448.7783 120.7006 450.25756 120.9707 451.87891 120.9707 C 453.50022 120.9707 454.97951 120.7006 456.31641 120.16016 C 457.6533 119.59127 458.84794 118.78096 459.90039 117.72852 C 460.63994 116.98896 461.20919 116.20575 461.60742 115.38086 C 462.00563 114.55597 462.28833 113.66047 462.45898 112.69336 C 462.62957 111.72625 462.72934 110.65841 462.75781 109.49219 C 462.78628 108.29752 462.80078 106.97606 462.80078 105.52539 C 462.80078 104.07472 462.78628 102.76583 462.75781 101.59961 C 462.72934 100.40494 462.62957 99.324532 462.45898 98.357422 C 462.2884 97.390309 462.00571 96.492858 461.60742 95.667969 C 461.20919 94.843079 460.63994 94.061821 459.90039 93.322266 C 459.65739 93.079268 459.40465 92.852422 459.14648 92.636719 z "
       style="font-style:normal;font-variant:normal;font-weight:normal;font-stretch:normal;font-size:11.2889px;line-height:1.25;font-family:DIN;-inkscape-font-specification:DIN;fill:#000000;fill-opacity:1;stroke:none;stroke-width:0.999999"
       id="path96" />
    <path
       transform="scale(0.26458333)"
       d="M 469.64844 90.335938 L 469.64844 94.474609 L 474.25586 94.474609 L 479.82227 94.474609 L 480.91211 94.474609 C 482.53345 94.474609 483.82782 94.915096 484.79492 95.796875 C 485.7905 96.678654 486.28906 97.929447 486.28906 99.550781 C 486.28906 101.17212 485.7905 102.42486 484.79492 103.30664 C 483.82782 104.15997 482.53345 104.58594 480.91211 104.58594 L 479.82227 104.58594 L 474.25586 104.58594 L 469.64844 104.58594 L 469.64844 120.71484 L 474.25586 120.71484 L 474.25586 108.76758 L 481.16797 108.76758 C 482.64707 108.76758 483.98503 108.5391 485.17969 108.08398 C 486.37437 107.60043 487.39861 106.96051 488.25195 106.16406 C 489.10527 105.33917 489.75779 104.37301 490.21289 103.26367 C 490.66802 102.12589 490.89648 100.88767 490.89648 99.550781 C 490.89648 98.242337 490.66802 97.020591 490.21289 95.882812 C 489.75779 94.745034 489.10527 93.776916 488.25195 92.980469 C 487.39861 92.155579 486.37437 91.515657 485.17969 91.060547 C 483.98503 90.576992 482.64707 90.335938 481.16797 90.335938 L 469.64844 90.335938 z "
       style="font-style:normal;font-variant:normal;font-weight:normal;font-stretch:normal;font-size:11.2889px;line-height:1.25;font-family:DIN;-inkscape-font-specification:DIN;fill:#000000;fill-opacity:1;stroke:none;stroke-width:0.999999"
       id="path98" />
    <path
       transform="scale(0.26458333)"
       d="M 506.29492 90.080078 C 504.67361 90.080078 503.19432 90.364704 501.85742 90.933594 C 500.54897 91.474038 499.36885 92.269818 498.31641 93.322266 C 497.57685 94.061821 497.00761 94.843079 496.60938 95.667969 C 496.21116 96.492858 495.912 97.390309 495.71289 98.357422 C 495.54231 99.324532 495.44449 100.40494 495.41602 101.59961 C 495.38754 102.76583 495.37305 104.07472 495.37305 105.52539 C 495.37305 106.97606 495.38754 108.29752 495.41602 109.49219 C 495.44449 110.65841 495.54231 111.72625 495.71289 112.69336 C 495.91195 113.66047 496.21111 114.55597 496.60938 115.38086 C 497.00761 116.20575 497.57685 116.98896 498.31641 117.72852 C 498.55175 117.96386 498.79482 118.18142 499.04297 118.39258 L 501.01367 113.95508 C 500.95429 113.86116 500.88825 113.77031 500.83398 113.67383 C 500.60646 113.19027 500.42156 112.60845 500.2793 111.92578 C 500.16541 111.21467 500.08013 110.36079 500.02344 109.36523 C 499.99497 108.34123 499.98047 107.06139 499.98047 105.52539 C 499.98047 103.98939 499.99497 102.72407 500.02344 101.72852 C 500.08038 100.70452 500.16566 99.850637 500.2793 99.167969 C 500.42141 98.456856 500.60631 97.873079 500.83398 97.417969 C 501.08998 96.934413 501.40367 96.493927 501.77344 96.095703 C 502.31388 95.526814 502.96637 95.071803 503.73438 94.730469 C 504.53082 94.389137 505.38471 94.21875 506.29492 94.21875 C 507.20516 94.21875 508.0445 94.389137 508.8125 94.730469 C 509.02354 94.820912 509.22491 94.920923 509.41797 95.027344 L 511.14844 91.126953 C 511.00924 91.063568 510.87484 90.991168 510.73242 90.933594 C 509.39553 90.364704 507.91626 90.080078 506.29492 90.080078 z M 513.56641 92.640625 L 511.5625 97.152344 C 511.61134 97.241901 511.67122 97.325276 511.71484 97.417969 C 511.97087 97.873079 512.15577 98.456856 512.26953 99.167969 C 512.41189 99.850637 512.49717 100.70452 512.52539 101.72852 C 512.58234 102.72407 512.60938 103.98939 512.60938 105.52539 C 512.60938 107.48806 512.55309 109.038 512.43945 110.17578 C 512.35404 111.31356 512.113 112.26715 511.71484 113.03516 L 508.76953 110.08984 L 506.21094 112.65039 L 509.41016 115.84961 C 508.49995 116.50383 507.46116 116.83203 506.29492 116.83203 C 505.38471 116.83203 504.53082 116.66165 503.73438 116.32031 C 503.54099 116.23436 503.35474 116.14139 503.17578 116.04102 L 501.43945 119.95312 C 501.57934 120.02105 501.71448 120.09801 501.85742 120.16016 C 503.19432 120.7006 504.67361 120.9707 506.29492 120.9707 C 507.48961 120.9707 508.62809 120.81289 509.70898 120.5 C 510.78985 120.15867 511.77055 119.67656 512.65234 119.05078 L 515.68164 122.08008 L 518.24219 119.51953 L 515.25586 116.57617 C 515.76786 115.89351 516.15025 115.18096 516.40625 114.44141 C 516.66225 113.67341 516.84715 112.84858 516.96094 111.9668 C 517.10305 111.08502 517.17578 110.11885 517.17578 109.06641 C 517.20425 107.98552 517.2168 106.80539 517.2168 105.52539 C 517.2168 104.07472 517.20425 102.76583 517.17578 101.59961 C 517.14731 100.40494 517.04754 99.324532 516.87695 98.357422 C 516.70637 97.390309 516.42175 96.492858 516.02344 95.667969 C 515.62523 94.843079 515.05596 94.061821 514.31641 93.322266 C 514.07472 93.080584 513.82309 92.855307 513.56641 92.640625 z "
       style="font-style:normal;font-variant:normal;font-weight:normal;font-stretch:normal;font-size:11.2889px;line-height:1.25;font-family:DIN;-inkscape-font-specification:DIN;fill:#000000;fill-opacity:1;stroke:none;stroke-width:0.999999"
       id="path100" />
    <path
       transform="scale(0.26458333)"
       d="M 524.06445 90.335938 L 524.06445 94.474609 L 528.67383 94.474609 L 533.61719 94.474609 L 535.5 94.474609 C 537.036 94.474609 538.27228 94.900572 539.21094 95.753906 C 540.17807 96.578796 540.66211 97.746348 540.66211 99.253906 C 540.66211 100.76146 540.17807 101.92706 539.21094 102.75195 C 538.27228 103.57684 537.036 103.98828 535.5 103.98828 L 533.61719 103.98828 L 528.67383 103.98828 L 524.06445 103.98828 L 524.06445 120.71484 L 528.67383 120.71484 L 528.67383 107.91406 L 534.43359 107.91406 L 540.83398 120.71484 L 546.20898 120.71484 L 539.21094 107.27344 C 540.91762 106.78988 542.35527 105.87986 543.52148 104.54297 C 544.68772 103.17763 545.27148 101.40116 545.27148 99.210938 C 545.27148 97.930935 545.04302 96.748858 544.58789 95.667969 C 544.16123 94.558635 543.53583 93.621516 542.71094 92.853516 C 541.88604 92.057068 540.89082 91.444244 539.72461 91.017578 C 538.58682 90.562468 537.29246 90.335938 535.8418 90.335938 L 524.06445 90.335938 z "
       style="font-style:normal;font-variant:normal;font-weight:normal;font-stretch:normal;font-size:11.2889px;line-height:1.25;font-family:DIN;-inkscape-font-specification:DIN;fill:#000000;fill-opacity:1;stroke:none;stroke-width:0.999999"
       id="path102" />
    <path
       d="m 151.06876,29.647343 q 0,-0.51929 -0.16934,-0.936979 -0.15804,-0.417689 -0.48542,-0.711201 -0.25965,-0.225778 -0.59831,-0.361244 -0.33867,-0.146756 -0.90311,-0.237067 l -0.91441,-0.135467 q -0.58702,-0.09031 -0.90311,-0.372534 -0.15804,-0.146756 -0.23706,-0.327378 -0.0677,-0.191911 -0.0677,-0.417689 0,-0.541867 0.37254,-0.891823 0.38382,-0.361245 1.09502,-0.361245 0.508,0 0.93698,0.135467 0.44027,0.124178 0.8128,0.485422 l 0.77893,-0.767645 q -0.51929,-0.485423 -1.10631,-0.699912 -0.58702,-0.214489 -1.38853,-0.214489 -0.63218,0 -1.12889,0.169334 -0.49672,0.169333 -0.84667,0.485422 -0.33867,0.31609 -0.53058,0.756357 -0.18062,0.428978 -0.18062,0.948267 0,0.982135 0.58702,1.535291 0.54187,0.508 1.524,0.643467 l 0.94827,0.135467 q 0.36124,0.05644 0.54187,0.124178 0.18062,0.06773 0.33866,0.214489 0.31609,0.282222 0.31609,0.835379 0,0.587022 -0.44026,0.9144 -0.42898,0.31609 -1.21921,0.31609 -0.62088,0 -1.1176,-0.158045 -0.49671,-0.169333 -0.93698,-0.609601 l -0.8128,0.801512 q 0.57574,0.587023 1.25307,0.82409 0.67734,0.237067 1.59174,0.237067 0.63218,0 1.16275,-0.158045 0.53058,-0.158044 0.9144,-0.462844 0.38383,-0.304801 0.59832,-0.745068 0.21449,-0.440267 0.21449,-0.993423 z"
       style="font-style:normal;font-variant:normal;font-weight:normal;font-stretch:normal;font-size:11.2889px;line-height:1.25;font-family:DIN;-inkscape-font-specification:DIN;fill:#000000;fill-opacity:1;stroke:none;stroke-width:0.264583"
       id="path104" />
    <path
       d="m 157.63714,24.996316 v -1.095023 h -5.64445 v 1.095023 h 2.21262 v 6.942674 h 1.2192 v -6.942674 z"
       style="font-style:normal;font-variant:normal;font-weight:normal;font-stretch:normal;font-size:11.2889px;line-height:1.25;font-family:DIN;-inkscape-font-specification:DIN;fill:#000000;fill-opacity:1;stroke:none;stroke-width:0.264583"
       id="path106" />
    <path
       d="m 164.67629,29.229654 v -5.328361 h -1.2192 v 5.271916 q 0,0.812801 -0.46284,1.275646 -0.45156,0.462845 -1.20792,0.462845 -0.75635,0 -1.20791,-0.462845 -0.45155,-0.462845 -0.45155,-1.275646 v -5.271916 h -1.2192 v 5.328361 q 0,0.620889 0.21448,1.140178 0.22578,0.508001 0.60961,0.869246 0.38382,0.361245 0.9144,0.564445 0.53057,0.2032 1.14017,0.2032 0.60961,0 1.14018,-0.2032 0.53058,-0.2032 0.9144,-0.564445 0.39512,-0.361245 0.60961,-0.869246 0.22577,-0.519289 0.22577,-1.140178 z"
       style="font-style:normal;font-variant:normal;font-weight:normal;font-stretch:normal;font-size:11.2889px;line-height:1.25;font-family:DIN;-inkscape-font-specification:DIN;fill:#000000;fill-opacity:1;stroke:none;stroke-width:0.264583"
       id="path108" />
    <path
       d="m 172.30512,29.229654 v -5.328361 h -1.2192 v 5.271916 q 0,0.812801 -0.46284,1.275646 -0.45156,0.462845 -1.20792,0.462845 -0.75635,0 -1.20791,-0.462845 -0.45155,-0.462845 -0.45155,-1.275646 v -5.271916 h -1.2192 v 5.328361 q 0,0.620889 0.21448,1.140178 0.22578,0.508001 0.60961,0.869246 0.38382,0.361245 0.9144,0.564445 0.53057,0.2032 1.14017,0.2032 0.60961,0 1.14018,-0.2032 0.53058,-0.2032 0.9144,-0.564445 0.39512,-0.361245 0.60961,-0.869246 0.22577,-0.519289 0.22577,-1.140178 z m -1.14018,-6.16374 v -1.219201 h -1.03857 v 1.219201 z m -2.4384,0 v -1.219201 h -1.03858 v 1.219201 z"
       style="font-style:normal;font-variant:normal;font-weight:normal;font-stretch:normal;font-size:11.2889px;line-height:1.25;font-family:DIN;-inkscape-font-specification:DIN;fill:#000000;fill-opacity:1;stroke:none;stroke-width:0.264583"
       id="path110" />
    <path
       d="m 179.55013,23.901293 h -1.28693 l -1.85138,5.84765 -1.85138,-5.84765 h -1.26436 l 2.6416,8.037697 h 0.94827 z"
       style="font-style:normal;font-variant:normal;font-weight:normal;font-stretch:normal;font-size:11.2889px;line-height:1.25;font-family:DIN;-inkscape-font-specification:DIN;fill:#000000;fill-opacity:1;stroke:none;stroke-width:0.264583"
       id="path112" />
    <path
       d="m 195.85747,31.93899 -2.49485,-4.120449 2.32551,-3.917248 h -1.39982 l -1.59174,2.878669 -1.58044,-2.878669 h -1.39983 l 2.32552,3.917248 -2.48356,4.120449 h 1.39982 l 1.73849,-3.08187 1.74978,3.08187 z"
       style="font-style:normal;font-variant:normal;font-weight:normal;font-stretch:normal;font-size:11.2889px;line-height:1.25;font-family:DIN;-inkscape-font-specification:DIN;fill:#000000;fill-opacity:1;stroke:none;stroke-width:0.264583"
       id="path116" />
    <path
       d="m 202.05648,23.901293 h -1.33209 l -1.68204,3.533425 -1.68205,-3.533425 h -1.33209 l 2.40454,4.730049 v 3.307648 h 1.2192 v -3.307648 z"
       style="font-style:normal;font-variant:normal;font-weight:normal;font-stretch:normal;font-size:11.2889px;line-height:1.25;font-family:DIN;-inkscape-font-specification:DIN;fill:#000000;fill-opacity:1;stroke:none;stroke-width:0.264583"
       id="path118" />
    <path
       d="m 207.81294,31.93899 v -1.095024 h -3.73663 l 3.73663,-5.94925 v -0.993423 h -4.9897 v 1.095023 h 3.55601 l -3.71405,5.892806 v 1.049868 z"
       style="font-style:normal;font-variant:normal;font-weight:normal;font-stretch:normal;font-size:11.2889px;line-height:1.25;font-family:DIN;-inkscape-font-specification:DIN;fill:#000000;fill-opacity:1;stroke:none;stroke-width:0.264583"
       id="path120" />
    <text
       id="text58"
       y="16.063992"
       x="3.7958794"
       style="font-style:normal;font-weight:normal;font-size:11.2889px;line-height:1.25;font-family:sans-serif;fill:#000000;fill-opacity:1;stroke:none;stroke-width:0.264583"
       xml:space="preserve"><tspan
         style="font-style:normal;font-variant:normal;font-weight:normal;font-stretch:normal;font-size:11.2889px;font-family:DIN;-inkscape-font-specification:DIN;stroke-width:0.264583"
         y="16.063992"
         x="3.7958794"
         id="tspan56"
         sodipodi:role="line">AÄBCDEFGHIJKLMNOÖPQRSTUÜVWXYZ</tspan></text>
    <path
       d="m 18.956982,55.651385 v 8.03775 h 3.250965 c 0.353719,0 0.677488,-0.04892 0.971,-0.146759 0.301037,-0.09784 0.556669,-0.240768 0.767395,-0.428916 0.218252,-0.195675 0.387564,-0.433125 0.507979,-0.711584 0.120415,-0.285985 0.180867,-0.613081 0.180867,-0.981852 0,-0.255882 -0.03407,-0.485646 -0.101802,-0.688846 -0.06773,-0.203202 -0.157895,-0.379682 -0.270785,-0.530201 -0.112888,-0.150519 -0.240963,-0.278593 -0.383955,-0.383955 -0.142993,-0.11289 -0.293091,-0.199726 -0.451136,-0.259932 0.135467,-0.05268 0.266868,-0.12799 0.394808,-0.225827 0.127941,-0.105363 0.240643,-0.229077 0.338481,-0.372071 0.105363,-0.150519 0.188356,-0.316505 0.248563,-0.497128 0.06773,-0.188148 0.101803,-0.391012 0.101803,-0.609264 0,-0.684861 -0.218236,-1.223023 -0.65474,-1.614371 -0.428979,-0.391348 -1.019909,-0.587044 -1.772502,-0.587044 h -0.688847 v 1.095023 h 0.587044 c 0.391349,0 0.707433,0.09785 0.948263,0.293521 0.24083,0.195675 0.361218,0.481533 0.361218,0.857829 0,0.376298 -0.120388,0.662154 -0.361218,0.857829 -0.24083,0.195676 -0.556914,0.293521 -0.948263,0.293521 h -0.587044 v 1.095026 h 0.700216 c 0.428978,0 0.756074,0.113218 0.981852,0.338997 0.225778,0.225777 0.338997,0.519322 0.338997,0.880565 0,0.361247 -0.113219,0.658114 -0.338997,0.891419 -0.225778,0.225779 -0.552874,0.338997 -0.981852,0.338997 h -0.700216 -1.219047 v -2.449978 -1.095026 -2.3027 -1.095023 z"
       style="font-style:normal;font-variant:normal;font-weight:normal;font-stretch:normal;font-size:11.2889px;line-height:1.25;font-family:DIN;-inkscape-font-specification:DIN;fill:#000000;fill-opacity:1;stroke:none;stroke-width:0.264583"
       id="path165" />
    <g
       id="g115"
       transform="translate(0,5.2916667)">
      <path
         id="path53"
         d="m 13.888041,34.484717 -2.946073,8.037751 h 1.282609 l 0.931209,-2.653067 h -0.0016 l 1.253153,-3.567224 1.219047,3.567224 h -1.178739 l -0.364319,1.038696 h 1.882056 l 0.552937,1.614371 h 1.298112 L 14.87041,34.484717 Z"
         style="font-style:normal;font-variant:normal;font-weight:normal;font-stretch:normal;font-size:11.2889px;line-height:1.25;font-family:DIN;-inkscape-font-specification:DIN;fill:#000000;fill-opacity:1;stroke:none;stroke-width:0.264583" />
      <g
         transform="translate(-0.06201311,0.52916663)"
         id="g57">
        <circle
           style="fill:#000000;stroke-width:0.286694"
           id="path45"
           cx="13.222167"
           cy="33.039562"
           r="0.60949999" />
        <ellipse
           style="fill:#000000;stroke-width:0.286629"
           id="path47"
           cx="15.66026"
           cy="33.039585"
           rx="0.60949999"
           ry="0.60952353" />
      </g>
    </g>
    <g
       id="g109"
       transform="translate(0,5.2916667)">
      <path
         d="m 119.55963,34.417021 c -0.42899,0 -0.82037,0.07531 -1.17409,0.225826 -0.3462,0.142992 -0.65844,0.353542 -0.9369,0.632003 -0.19567,0.195673 -0.34629,0.402381 -0.45165,0.620633 -0.10537,0.218252 -0.18451,0.455703 -0.23719,0.711585 -0.0451,0.255881 -0.0715,0.541739 -0.0791,0.857829 -0.008,0.308562 -0.0114,0.654873 -0.0114,1.038696 0,0.383823 0.004,0.733459 0.0114,1.049549 0.008,0.308562 0.0339,0.591095 0.0791,0.846976 0.0527,0.255881 0.13181,0.492816 0.23719,0.711068 0.10536,0.218252 0.25598,0.425476 0.45165,0.621152 0.0619,0.06192 0.12594,0.119073 0.19121,0.174664 l 0.52193,-1.174604 c -0.0154,-0.02442 -0.0329,-0.0478 -0.047,-0.07286 -0.0602,-0.127942 -0.10912,-0.281882 -0.14676,-0.462505 -0.0301,-0.188148 -0.0526,-0.41407 -0.0677,-0.677479 -0.008,-0.270933 -0.0114,-0.609557 -0.0114,-1.015957 0,-0.4064 0.004,-0.741183 0.0114,-1.004589 0.0151,-0.270933 0.0376,-0.496856 0.0677,-0.677479 0.0376,-0.188149 0.0865,-0.342606 0.14676,-0.463021 0.0677,-0.127941 0.15021,-0.244486 0.24805,-0.349849 0.14299,-0.150519 0.31615,-0.270907 0.51935,-0.361218 0.21073,-0.09031 0.43664,-0.135393 0.67748,-0.135393 0.24082,0 0.4629,0.04508 0.6661,0.135393 0.0555,0.02377 0.10788,0.05009 0.15865,0.07803 l 0.45837,-1.031978 c -0.0365,-0.01663 -0.0716,-0.03553 -0.10903,-0.05064 -0.35373,-0.150519 -0.74512,-0.225826 -1.17409,-0.225826 z m 1.92287,0.676444 -0.53019,1.193209 c 0.0132,0.02417 0.029,0.04679 0.0408,0.07183 0.0677,0.120415 0.11666,0.274872 0.14676,0.463021 0.0376,0.180623 0.0602,0.406546 0.0677,0.677479 0.0151,0.263406 0.0227,0.598189 0.0227,1.004589 0,0.4064 -0.008,0.745024 -0.0227,1.015957 -0.008,0.263409 -0.0301,0.489331 -0.0677,0.677479 -0.0301,0.180623 -0.079,0.334563 -0.14676,0.462505 -0.0602,0.120415 -0.13935,0.233633 -0.2372,0.338998 -0.14299,0.150518 -0.31947,0.270906 -0.5302,0.361217 -0.2032,0.09031 -0.42528,0.135392 -0.6661,0.135392 -0.24084,0 -0.46675,-0.04508 -0.67748,-0.135392 -0.0516,-0.02294 -0.1011,-0.0481 -0.14883,-0.07493 l -0.45992,1.035595 c 0.0375,0.01823 0.0738,0.03863 0.11214,0.05529 0.35372,0.142991 0.7451,0.214455 1.17409,0.214455 0.42897,0 0.82036,-0.07146 1.17409,-0.214455 0.35371,-0.150519 0.6698,-0.364913 0.94826,-0.643371 0.19567,-0.195676 0.34628,-0.4029 0.45165,-0.621152 0.10536,-0.218252 0.18016,-0.455187 0.22531,-0.711068 0.0451,-0.255881 0.0715,-0.538414 0.0791,-0.846976 0.008,-0.31609 0.0114,-0.665726 0.0114,-1.049549 0,-0.383823 -0.004,-0.730134 -0.0114,-1.038696 -0.008,-0.31609 -0.0339,-0.601948 -0.0791,-0.857829 -0.0451,-0.255882 -0.11993,-0.493333 -0.22531,-0.711585 -0.10537,-0.218252 -0.25598,-0.42496 -0.45165,-0.620633 -0.0643,-0.06429 -0.13117,-0.124313 -0.19948,-0.181385 z"
         style="font-style:normal;font-variant:normal;font-weight:normal;font-stretch:normal;font-size:11.2889px;line-height:1.25;font-family:DIN;-inkscape-font-specification:DIN;fill:#000000;fill-opacity:1;stroke:none;stroke-width:0.264583"
         id="path79" />
      <g
         id="g67"
         transform="translate(105.11815,0.52916663)">
        <circle
           r="0.60949999"
           cy="33.039562"
           cx="13.222167"
           id="circle63"
           style="fill:#000000;stroke-width:0.286694" />
        <ellipse
           ry="0.60952353"
           rx="0.60949999"
           cy="33.039585"
           cx="15.66026"
           id="ellipse65"
           style="fill:#000000;stroke-width:0.286629" />
      </g>
    </g>
    <g
       id="g103"
       transform="translate(0,5.2916667)">
      <path
         id="path61"
         d="m 172.30512,39.812988 v -5.328361 h -1.2192 v 5.271916 q 0,0.812801 -0.46284,1.275646 -0.45156,0.462845 -1.20792,0.462845 -0.75635,0 -1.20791,-0.462845 -0.45155,-0.462845 -0.45155,-1.275646 v -5.271916 h -1.2192 v 5.328361 q 0,0.620889 0.21448,1.140178 0.22578,0.508001 0.60961,0.869246 0.38382,0.361245 0.9144,0.564445 0.53057,0.2032 1.14017,0.2032 0.60961,0 1.14018,-0.2032 0.53058,-0.2032 0.9144,-0.564445 0.39512,-0.361245 0.60961,-0.869246 0.22577,-0.519289 0.22577,-1.140178 z"
         style="font-style:normal;font-variant:normal;font-weight:normal;font-stretch:normal;font-size:11.2889px;line-height:1.25;font-family:DIN;-inkscape-font-specification:DIN;fill:#000000;fill-opacity:1;stroke:none;stroke-width:0.264583" />
      <g
         id="g97">
        <circle
           style="fill:#000000;stroke-width:0.286694"
           id="circle69"
           cx="168.20177"
           cy="33.568729"
           r="0.60949999" />
        <ellipse
           style="fill:#000000;stroke-width:0.286629"
           id="ellipse71"
           cx="170.63986"
           cy="33.568752"
           rx="0.60949999"
           ry="0.60952353" />
      </g>
    </g>
    <path
       id="path117"
       style="font-style:normal;font-variant:normal;font-weight:normal;font-stretch:normal;font-size:11.2889px;line-height:1.25;font-family:DIN;-inkscape-font-specification:DIN;fill:#000000;fill-opacity:1;stroke:none;stroke-width:0.264583"
       d="m 6.8326579,39.776384 -2.9465902,8.037751 h 1.2634888 l 2.2024493,-6.220291 1.2190471,3.567224 H 7.3819784 l -0.3679362,1.038696 h 1.8954913 l 0.5534547,1.614371 H 10.7611 L 7.8145099,39.776384 Z" />
    <path
       id="path119"
       style="font-style:normal;font-variant:normal;font-weight:normal;font-stretch:normal;font-size:11.2889px;line-height:1.25;font-family:DIN;-inkscape-font-specification:DIN;fill:#000000;fill-opacity:1;stroke:none;stroke-width:0.264583"
       d="m 31.895188,45.409455 h -1.23049 q -0.146756,0.6096 -0.553156,0.993423 -0.406401,0.383823 -1.083735,0.383823 -0.361244,0 -0.666045,-0.124178 -0.3048,-0.135467 -0.519289,-0.361245 -0.146756,-0.158045 -0.248356,-0.338667 -0.09031,-0.191911 -0.146756,-0.462845 -0.04516,-0.282222 -0.06773,-0.688623 -0.02258,-0.4064 -0.02258,-1.016001 0,-0.609601 0.02258,-1.016001 0.02258,-0.4064 0.06773,-0.677334 0.05645,-0.282222 0.146756,-0.462845 0.1016,-0.191911 0.248356,-0.349956 0.214489,-0.225778 0.519289,-0.349956 0.304801,-0.135466 0.666045,-0.135466 0.677334,0 1.072446,0.383822 0.4064,0.383823 0.553156,0.993423 h 1.241779 q -0.214489,-1.207912 -0.982134,-1.84009 -0.767645,-0.632179 -1.885247,-0.632179 -0.632178,0 -1.162756,0.225778 -0.530579,0.214489 -0.948268,0.632179 -0.293511,0.293511 -0.451556,0.620889 -0.158045,0.327378 -0.237067,0.711201 -0.06773,0.383822 -0.07902,0.857956 -0.01129,0.462845 -0.01129,1.038579 0,0.575734 0.01129,1.049868 0.01129,0.462845 0.07902,0.846667 0.07902,0.383823 0.237067,0.711201 0.158045,0.327378 0.451556,0.62089 0.417689,0.417689 0.948268,0.643467 0.530578,0.214489 1.162756,0.214489 0.541868,0 1.016001,-0.158045 0.485423,-0.158044 0.857957,-0.474133 0.383823,-0.31609 0.632178,-0.778935 0.259645,-0.462844 0.361245,-1.061156 z" />
    <path
       id="path121"
       style="font-style:normal;font-variant:normal;font-weight:normal;font-stretch:normal;font-size:11.2889px;line-height:1.25;font-family:DIN;-inkscape-font-specification:DIN;fill:#000000;fill-opacity:1;stroke:none;stroke-width:0.264583"
       d="m 33.53077,39.776384 v 5.723165 h 1.219562 v -4.628142 h 1.478981 c 0.579496,0 1.034667,0.180325 1.365809,0.541569 0.210724,0.233304 0.334957,0.542219 0.372586,0.926041 0.03763,0.376298 0.05633,0.842997 0.05633,1.399916 0,0.556918 -0.01869,1.045641 -0.05633,1.467093 -0.03763,0.413927 -0.161859,0.737695 -0.372586,0.971 -0.331142,0.361246 -0.786313,0.542086 -1.365809,0.542086 H 34.750332 33.53077 v 1.095023 h 2.822567 c 0.421452,0 0.809,-0.06045 1.162719,-0.180867 0.353719,-0.127941 0.658273,-0.319793 0.914157,-0.575675 0.218252,-0.218252 0.384236,-0.459028 0.497125,-0.722436 0.11289,-0.263409 0.191524,-0.538253 0.236678,-0.824238 0.04515,-0.285986 0.0677,-0.57953 0.0677,-0.880568 0.0075,-0.301038 0.01137,-0.597908 0.01137,-0.891418 0,-0.293513 -0.0038,-0.583729 -0.01137,-0.869715 0,-0.285985 -0.02254,-0.564157 -0.0677,-0.835091 -0.04515,-0.27846 -0.123785,-0.541777 -0.236678,-0.790133 -0.112889,-0.255882 -0.278873,-0.493332 -0.497125,-0.711584 -0.255884,-0.255882 -0.560438,-0.443892 -0.914157,-0.564307 -0.353719,-0.12794 -0.741267,-0.191719 -1.162719,-0.191719 z" />
    <path
       id="path123"
       style="font-style:normal;font-variant:normal;font-weight:normal;font-stretch:normal;font-size:11.2889px;line-height:1.25;font-family:DIN;-inkscape-font-specification:DIN;fill:#000000;fill-opacity:1;stroke:none;stroke-width:0.264583"
       d="m 46.186054,47.813991 v -1.095024 h -3.917248 v -2.415824 h 3.341514 v -1.083735 h -3.341514 v -2.348091 h 3.917248 v -1.095023 h -5.136449 v 8.037697 z" />
    <path
       id="path125"
       style="font-style:normal;font-variant:normal;font-weight:normal;font-stretch:normal;font-size:11.2889px;line-height:1.25;font-family:DIN;-inkscape-font-specification:DIN;fill:#000000;fill-opacity:1;stroke:none;stroke-width:0.264583"
       d="m 52.999081,40.871317 v -1.095023 h -5.13645 v 8.037697 h 1.219201 v -3.397959 h 3.341515 v -1.095024 h -3.341515 v -2.449691 z" />
    <path
       id="path127"
       style="font-style:normal;font-variant:normal;font-weight:normal;font-stretch:normal;font-size:11.2889px;line-height:1.25;font-family:DIN;-inkscape-font-specification:DIN;fill:#000000;fill-opacity:1;stroke:none;stroke-width:0.264583"
       d="m 59.785649,44.698254 v -1.23049 h -2.935114 v 1.038579 h 1.715912 v 0.451556 q 0,0.395111 -0.09031,0.699912 -0.09031,0.3048 -0.316089,0.564445 -0.237067,0.270933 -0.575734,0.417689 -0.338667,0.146756 -0.733778,0.146756 -0.361245,0 -0.666045,-0.124178 -0.304801,-0.135467 -0.51929,-0.361245 -0.146756,-0.158045 -0.248356,-0.338667 -0.09031,-0.191911 -0.146755,-0.462845 -0.04516,-0.282222 -0.06773,-0.688623 -0.02258,-0.4064 -0.02258,-1.016001 0,-0.609601 0.02258,-1.004712 0.02258,-0.4064 0.06773,-0.677334 0.05644,-0.282223 0.146755,-0.462845 0.1016,-0.191911 0.248356,-0.349956 0.214489,-0.225778 0.51929,-0.361245 0.3048,-0.135466 0.666045,-0.135466 0.677334,0 1.106312,0.372533 0.428978,0.361245 0.587023,1.02729 h 1.23049 q -0.09031,-0.519289 -0.316089,-0.970845 -0.225778,-0.451556 -0.598312,-0.790223 -0.361245,-0.338667 -0.869245,-0.530579 -0.496712,-0.2032 -1.140179,-0.2032 -0.643468,0 -1.174046,0.225778 -0.519289,0.214489 -0.936979,0.632179 -0.293511,0.293511 -0.451556,0.620889 -0.158044,0.327378 -0.237067,0.711201 -0.06773,0.383822 -0.07902,0.857956 -0.01129,0.462845 -0.01129,1.038579 0,0.575734 0.01129,1.049868 0.01129,0.462845 0.07902,0.846667 0.07902,0.383823 0.237067,0.711201 0.158045,0.327378 0.451556,0.62089 0.41769,0.417689 0.948268,0.643467 0.530578,0.214489 1.162757,0.214489 0.643467,0 1.196623,-0.214489 0.553156,-0.214489 1.016001,-0.699912 0.395112,-0.428978 0.553156,-0.959556 0.169334,-0.530579 0.169334,-1.309513 z" />
    <path
       id="path129"
       style="font-style:normal;font-variant:normal;font-weight:normal;font-stretch:normal;font-size:11.2889px;line-height:1.25;font-family:DIN;-inkscape-font-specification:DIN;fill:#000000;fill-opacity:1;stroke:none;stroke-width:0.264583"
       d="m 67.277778,47.813991 v -8.037697 h -1.219201 v 3.431825 h -3.262492 v -3.431825 h -1.219202 v 8.037697 h 1.219202 v -3.510848 h 3.262492 v 3.510848 z" />
    <path
       id="path131"
       style="font-style:normal;font-variant:normal;font-weight:normal;font-stretch:normal;font-size:11.2889px;line-height:1.25;font-family:DIN;-inkscape-font-specification:DIN;fill:#000000;fill-opacity:1;stroke:none;stroke-width:0.264583"
       d="m 70.601302,47.813991 v -8.037697 h -1.219201 v 8.037697 z" />
    <path
       id="path133"
       style="font-style:normal;font-variant:normal;font-weight:normal;font-stretch:normal;font-size:11.2889px;line-height:1.25;font-family:DIN;-inkscape-font-specification:DIN;fill:#000000;fill-opacity:1;stroke:none;stroke-width:0.264583"
       d="m 76.436776,45.273988 v -5.497694 h -1.219201 v 5.407383 q 0,0.790223 -0.395111,1.196623 -0.383823,0.406401 -1.061157,0.406401 -0.440267,0 -0.688623,-0.135467 -0.237067,-0.135467 -0.451556,-0.349956 l -0.812801,0.801512 q 0.41769,0.417689 0.869246,0.598312 0.462844,0.180622 1.083734,0.180622 0.553156,0 1.038579,-0.169333 0.485423,-0.180623 0.846667,-0.508001 0.372534,-0.327378 0.575734,-0.812801 0.214489,-0.485423 0.214489,-1.117601 z" />
    <path
       id="path135"
       style="font-style:normal;font-variant:normal;font-weight:normal;font-stretch:normal;font-size:11.2889px;line-height:1.25;font-family:DIN;-inkscape-font-specification:DIN;fill:#000000;fill-opacity:1;stroke:none;stroke-width:0.264583"
       d="m 84.687381,47.813991 -2.87867,-4.888094 2.607736,-3.149603 h -1.490135 l -3.28507,4.041426 v -4.041426 h -1.219201 v 8.037697 h 1.219201 v -2.336803 l 1.354668,-1.625601 2.25778,3.962404 z" />
    <path
       id="path137"
       style="font-style:normal;font-variant:normal;font-weight:normal;font-stretch:normal;font-size:11.2889px;line-height:1.25;font-family:DIN;-inkscape-font-specification:DIN;fill:#000000;fill-opacity:1;stroke:none;stroke-width:0.264583"
       d="M 90.943725,47.813991 V 46.718967 H 87.071632 V 39.776294 H 85.85243 v 8.037697 z" />
    <path
       id="path139"
       style="font-style:normal;font-variant:normal;font-weight:normal;font-stretch:normal;font-size:11.2889px;line-height:1.25;font-family:DIN;-inkscape-font-specification:DIN;fill:#000000;fill-opacity:1;stroke:none;stroke-width:0.264583"
       d="m 99.424152,47.813991 v -8.037697 h -1.219201 l -2.302936,5.000982 -2.348091,-5.000982 h -1.219201 v 8.037697 h 1.219201 v -5.373517 l 1.896535,3.917248 h 0.903112 l 1.85138,-3.917248 v 5.373517 z" />
    <path
       id="path141"
       style="font-style:normal;font-variant:normal;font-weight:normal;font-stretch:normal;font-size:11.2889px;line-height:1.25;font-family:DIN;-inkscape-font-specification:DIN;fill:#000000;fill-opacity:1;stroke:none;stroke-width:0.264583"
       d="m 107.55781,47.813991 v -8.037697 h -1.2192 v 5.64445 l -3.71405,-5.64445 h -1.1176 v 8.037697 h 1.2192 v -5.655739 l 3.71405,5.655739 z" />
    <path
       id="path143"
       style="font-style:normal;font-variant:normal;font-weight:normal;font-stretch:normal;font-size:11.2889px;line-height:1.25;font-family:DIN;-inkscape-font-specification:DIN;fill:#000000;fill-opacity:1;stroke:none;stroke-width:0.264583"
       d="m 112.26136,39.708688 c -0.42898,0 -0.82036,0.07531 -1.17409,0.225826 -0.34618,0.142992 -0.65843,0.353542 -0.93689,0.632003 -0.19568,0.195673 -0.34629,0.402381 -0.45165,0.620633 -0.10536,0.218252 -0.18451,0.455703 -0.2372,0.711585 -0.0451,0.255881 -0.071,0.541739 -0.0785,0.857829 -0.008,0.308562 -0.0114,0.654873 -0.0114,1.038696 0,0.383823 0.004,0.733459 0.0114,1.049549 0.008,0.308562 0.0334,0.591095 0.0785,0.846976 0.0527,0.255881 0.13182,0.492816 0.2372,0.711068 0.10536,0.218252 0.25597,0.425476 0.45165,0.621152 0.0619,0.06192 0.12594,0.119073 0.1912,0.174664 l 0.52194,-1.174604 c -0.0154,-0.02442 -0.0329,-0.0478 -0.047,-0.07286 -0.0602,-0.127942 -0.10913,-0.281882 -0.14676,-0.462505 -0.0301,-0.188148 -0.0527,-0.41407 -0.0677,-0.677479 -0.008,-0.270933 -0.0114,-0.609557 -0.0114,-1.015957 0,-0.4064 0.004,-0.741183 0.0114,-1.004589 0.0151,-0.270933 0.0376,-0.496856 0.0677,-0.677479 0.0376,-0.188149 0.0865,-0.342606 0.14676,-0.463021 0.0677,-0.127941 0.15021,-0.244486 0.24805,-0.349849 0.14299,-0.150519 0.31615,-0.270907 0.51935,-0.361218 0.21072,-0.09031 0.43665,-0.135393 0.67747,-0.135393 0.24084,0 0.46291,0.04508 0.66611,0.135393 0.0554,0.02374 0.10846,0.04962 0.15917,0.07751 l 0.45785,-1.031461 c -0.0365,-0.0166 -0.0717,-0.03555 -0.10904,-0.05064 -0.35372,-0.150519 -0.74511,-0.225826 -1.17409,-0.225826 z m 1.92288,0.676444 -0.5302,1.193209 c 0.0132,0.02417 0.029,0.04679 0.0408,0.07183 0.0677,0.120415 0.11665,0.274872 0.14676,0.463021 0.0376,0.180623 0.0602,0.406546 0.0677,0.677479 0.0151,0.263406 0.0227,0.598189 0.0227,1.004589 0,0.4064 -0.008,0.745024 -0.0227,1.015957 -0.008,0.263409 -0.0301,0.489331 -0.0677,0.677479 -0.0301,0.180623 -0.0791,0.334563 -0.14676,0.462505 -0.0602,0.120415 -0.13883,0.233633 -0.23668,0.338998 -0.14299,0.150518 -0.32,0.270906 -0.53072,0.361217 -0.2032,0.09031 -0.42527,0.135392 -0.66611,0.135392 -0.24082,0 -0.46675,-0.04508 -0.67747,-0.135392 -0.0516,-0.02294 -0.1011,-0.0481 -0.14883,-0.07493 l -0.45992,1.035595 c 0.0375,0.01823 0.0738,0.03863 0.11213,0.05529 0.35373,0.142991 0.74511,0.214455 1.17409,0.214455 0.42898,0 0.82037,-0.07146 1.17409,-0.214455 0.35371,-0.150519 0.6698,-0.364913 0.94827,-0.643371 0.19567,-0.195676 0.34629,-0.4029 0.45165,-0.621152 0.10536,-0.218252 0.18066,-0.455187 0.22582,-0.711068 0.0451,-0.255881 0.0715,-0.538414 0.0791,-0.846976 0.008,-0.31609 0.0109,-0.665726 0.0109,-1.049549 0,-0.383823 -0.003,-0.730134 -0.0109,-1.038696 -0.008,-0.31609 -0.0339,-0.601948 -0.0791,-0.857829 -0.0451,-0.255882 -0.12044,-0.493333 -0.22582,-0.711585 -0.10536,-0.218252 -0.25598,-0.42496 -0.45165,-0.620633 -0.0643,-0.06429 -0.13117,-0.124313 -0.19948,-0.181385 z" />
    <path
       id="path147"
       style="font-style:normal;font-variant:normal;font-weight:normal;font-stretch:normal;font-size:11.2889px;line-height:1.25;font-family:DIN;-inkscape-font-specification:DIN;fill:#000000;fill-opacity:1;stroke:none;stroke-width:0.264583"
       d="m 133.9572,39.708688 c -0.42898,0 -0.82037,0.07531 -1.17409,0.225826 -0.3462,0.142992 -0.65844,0.353542 -0.93689,0.632003 -0.19568,0.195673 -0.34629,0.402381 -0.45166,0.620633 -0.10536,0.218252 -0.18451,0.455703 -0.23719,0.711585 -0.0451,0.255881 -0.071,0.541739 -0.0785,0.857829 -0.008,0.308562 -0.0114,0.654873 -0.0114,1.038696 0,0.383823 0.004,0.733459 0.0114,1.049549 0.008,0.308562 0.0334,0.591095 0.0785,0.846976 0.0527,0.255881 0.13182,0.492816 0.23719,0.711068 0.10537,0.218252 0.25598,0.425476 0.45166,0.621152 0.0623,0.06227 0.12657,0.119829 0.19223,0.175699 l 0.52142,-1.174089 c -0.0157,-0.02485 -0.0332,-0.04889 -0.0476,-0.07441 -0.0602,-0.127942 -0.10912,-0.281882 -0.14676,-0.462505 -0.0301,-0.188148 -0.0527,-0.41407 -0.0677,-0.677479 -0.008,-0.270933 -0.0114,-0.609557 -0.0114,-1.015957 0,-0.4064 0.004,-0.741183 0.0114,-1.004589 0.0151,-0.270933 0.0376,-0.496856 0.0677,-0.677479 0.0376,-0.188149 0.0865,-0.342606 0.14676,-0.463021 0.0677,-0.127941 0.15073,-0.244486 0.24857,-0.349849 0.14299,-0.150519 0.31563,-0.270907 0.51883,-0.361218 0.21072,-0.09031 0.43665,-0.135393 0.67748,-0.135393 0.24083,0 0.46291,0.04508 0.66611,0.135393 0.0558,0.02393 0.10911,0.05039 0.16019,0.07855 l 0.45786,-1.031979 c -0.0368,-0.01677 -0.0724,-0.03593 -0.11008,-0.05116 -0.35371,-0.150519 -0.7451,-0.225826 -1.17408,-0.225826 z m 1.92391,0.677478 -0.5302,1.193725 c 0.0129,0.0237 0.0288,0.04575 0.0403,0.07028 0.0677,0.120415 0.11666,0.274872 0.14676,0.463021 0.0377,0.180623 0.0602,0.406546 0.0677,0.677479 0.0151,0.263406 0.0222,0.598189 0.0222,1.004589 0,0.51929 -0.0149,0.929378 -0.045,1.230415 -0.0226,0.301038 -0.0864,0.553342 -0.19172,0.756545 l -0.77928,-0.779283 -0.67696,0.677479 0.84646,0.84646 c -0.24083,0.173096 -0.51568,0.259932 -0.82424,0.259932 -0.24083,0 -0.46676,-0.04508 -0.67748,-0.135392 -0.0512,-0.02274 -0.10045,-0.04734 -0.1478,-0.0739 l -0.4594,1.035077 c 0.037,0.01797 0.0728,0.03833 0.11059,0.05478 0.35372,0.142991 0.74511,0.214455 1.17409,0.214455 0.31609,0 0.61731,-0.04175 0.9033,-0.124539 0.28598,-0.09031 0.54546,-0.217869 0.77876,-0.38344 l 0.80151,0.801503 0.67747,-0.677479 -0.79013,-0.778764 c 0.13547,-0.180621 0.23664,-0.369149 0.30438,-0.564822 0.0677,-0.2032 0.11665,-0.421436 0.14676,-0.654741 0.0376,-0.233304 0.0568,-0.488936 0.0568,-0.767394 0.008,-0.285986 0.0108,-0.598229 0.0108,-0.936895 0,-0.383823 -0.003,-0.730134 -0.0108,-1.038696 -0.008,-0.31609 -0.0339,-0.601948 -0.0791,-0.857829 -0.0451,-0.255882 -0.12043,-0.493333 -0.22582,-0.711585 -0.10536,-0.218252 -0.25598,-0.42496 -0.45165,-0.620633 -0.064,-0.06395 -0.13053,-0.12355 -0.19844,-0.180351 z" />
    <path
       id="path151"
       style="font-style:normal;font-variant:normal;font-weight:normal;font-stretch:normal;font-size:11.2889px;line-height:1.25;font-family:DIN;-inkscape-font-specification:DIN;fill:#000000;fill-opacity:1;stroke:none;stroke-width:0.264583"
       d="m 151.06876,45.522344 q 0,-0.51929 -0.16934,-0.936979 -0.15804,-0.417689 -0.48542,-0.711201 -0.25965,-0.225778 -0.59831,-0.361244 -0.33867,-0.146756 -0.90311,-0.237067 l -0.91441,-0.135467 q -0.58702,-0.09031 -0.90311,-0.372534 -0.15804,-0.146756 -0.23706,-0.327378 -0.0677,-0.191911 -0.0677,-0.417689 0,-0.541867 0.37254,-0.891823 0.38382,-0.361245 1.09502,-0.361245 0.508,0 0.93698,0.135467 0.44027,0.124178 0.8128,0.485422 l 0.77893,-0.767645 q -0.51929,-0.485423 -1.10631,-0.699912 -0.58702,-0.214489 -1.38853,-0.214489 -0.63218,0 -1.12889,0.169334 -0.49672,0.169333 -0.84667,0.485422 -0.33867,0.31609 -0.53058,0.756357 -0.18062,0.428978 -0.18062,0.948267 0,0.982135 0.58702,1.535291 0.54187,0.508 1.524,0.643467 l 0.94827,0.135467 q 0.36124,0.05644 0.54187,0.124178 0.18062,0.06773 0.33866,0.214489 0.31609,0.282222 0.31609,0.835379 0,0.587022 -0.44026,0.9144 -0.42898,0.31609 -1.21921,0.31609 -0.62088,0 -1.1176,-0.158045 -0.49671,-0.169333 -0.93698,-0.609601 l -0.8128,0.801512 q 0.57574,0.587023 1.25307,0.82409 0.67734,0.237067 1.59174,0.237067 0.63218,0 1.16275,-0.158045 0.53058,-0.158044 0.9144,-0.462844 0.38383,-0.304801 0.59832,-0.745068 0.21449,-0.440267 0.21449,-0.993423 z" />
    <path
       id="path153"
       style="font-style:normal;font-variant:normal;font-weight:normal;font-stretch:normal;font-size:11.2889px;line-height:1.25;font-family:DIN;-inkscape-font-specification:DIN;fill:#000000;fill-opacity:1;stroke:none;stroke-width:0.264583"
       d="m 157.63714,40.871317 v -1.095023 h -5.64445 v 1.095023 h 2.21262 v 6.942674 h 1.2192 v -6.942674 z" />
    <path
       id="path155"
       style="font-style:normal;font-variant:normal;font-weight:normal;font-stretch:normal;font-size:11.2889px;line-height:1.25;font-family:DIN;-inkscape-font-specification:DIN;fill:#000000;fill-opacity:1;stroke:none;stroke-width:0.264583"
       d="m 164.67629,45.104655 v -5.328361 h -1.2192 v 5.271916 q 0,0.812801 -0.46284,1.275646 -0.45156,0.462845 -1.20792,0.462845 -0.75635,0 -1.20791,-0.462845 -0.45155,-0.462845 -0.45155,-1.275646 v -5.271916 h -1.2192 v 5.328361 q 0,0.620889 0.21448,1.140178 0.22578,0.508001 0.60961,0.869246 0.38382,0.361245 0.9144,0.564445 0.53057,0.2032 1.14017,0.2032 0.60961,0 1.14018,-0.2032 0.53058,-0.2032 0.9144,-0.564445 0.39512,-0.361245 0.60961,-0.869246 0.22577,-0.519289 0.22577,-1.140178 z" />
    <path
       id="path157"
       style="font-style:normal;font-variant:normal;font-weight:normal;font-stretch:normal;font-size:11.2889px;line-height:1.25;font-family:DIN;-inkscape-font-specification:DIN;fill:#000000;fill-opacity:1;stroke:none;stroke-width:0.264583"
       d="m 179.55013,39.776294 h -1.28693 l -1.85138,5.84765 -1.85138,-5.84765 h -1.26436 l 2.6416,8.037697 h 0.94827 z" />
    <path
       id="path161"
       style="font-style:normal;font-variant:normal;font-weight:normal;font-stretch:normal;font-size:11.2889px;line-height:1.25;font-family:DIN;-inkscape-font-specification:DIN;fill:#000000;fill-opacity:1;stroke:none;stroke-width:0.264583"
       d="m 195.85747,47.813991 -2.49485,-4.120449 2.32551,-3.917248 h -1.39982 l -1.59174,2.878669 -1.58044,-2.878669 h -1.39983 l 2.32552,3.917248 -2.48356,4.120449 h 1.39982 l 1.73849,-3.08187 1.74978,3.08187 z" />
    <path
       id="path163"
       style="font-style:normal;font-variant:normal;font-weight:normal;font-stretch:normal;font-size:11.2889px;line-height:1.25;font-family:DIN;-inkscape-font-specification:DIN;fill:#000000;fill-opacity:1;stroke:none;stroke-width:0.264583"
       d="m 202.05648,39.776294 h -1.33209 l -1.68204,3.533425 -1.68205,-3.533425 h -1.33209 l 2.40454,4.730049 v 3.307648 h 1.2192 v -3.307648 z" />
    <path
       id="path166"
       style="font-style:normal;font-variant:normal;font-weight:normal;font-stretch:normal;font-size:11.2889px;line-height:1.25;font-family:DIN;-inkscape-font-specification:DIN;fill:#000000;fill-opacity:1;stroke:none;stroke-width:0.264583"
       d="m 207.81294,47.813991 v -1.095024 h -3.73663 l 3.73663,-5.94925 v -0.993423 h -4.9897 v 1.095023 h 3.55601 l -3.71405,5.892806 v 1.049868 z" />
    <text
       id="text305"
       y="83.719131"
       x="61.085052"
       style="font-style:normal;font-weight:normal;font-size:10.5833px;line-height:1.25;font-family:sans-serif;fill:#000080;fill-opacity:1;stroke:none;stroke-width:0.264583"
       xml:space="preserve"><tspan
         style="fill:#000080;stroke-width:0.264583"
         y="83.719131"
         x="61.085052"
         id="tspan303"
         sodipodi:role="line">Schriftart DIN Medium</tspan></text>
    <path
       d="m 18.956982,66.234201 v 8.037753 h 1.219047 v -1.095023 -2.449463 -1.095025 -2.303217 -1.095025 z m 2.037602,0 v 1.095025 h 0.987536 c 0.391349,0 0.707433,0.09785 0.948263,0.293521 0.240829,0.195675 0.361218,0.481531 0.361218,0.85783 0,0.376295 -0.120389,0.66267 -0.361218,0.858345 -0.24083,0.195675 -0.556914,0.293521 -0.948263,0.293521 h -0.987536 v 1.095025 h 1.100708 c 0.428977,0 0.756074,0.112702 0.981852,0.338479 0.225778,0.22578 0.338997,0.519322 0.338997,0.880568 0,0.361244 -0.113219,0.65863 -0.338997,0.891934 -0.225778,0.22578 -0.552875,0.338482 -0.981852,0.338482 h -1.100708 v 1.095023 h 1.213363 c 0.353719,0 0.677488,-0.04892 0.971,-0.146762 0.301037,-0.09784 0.556669,-0.240765 0.767395,-0.428913 0.218252,-0.195676 0.387564,-0.43261 0.507978,-0.711068 0.120416,-0.285986 0.180868,-0.613598 0.180868,-0.982369 0,-0.255881 -0.03407,-0.485129 -0.101802,-0.688329 C 24.465656,71.11131 24.375491,70.934314 24.2626,70.783796 24.149713,70.633277 24.021638,70.505203 23.878646,70.399838 23.735653,70.28695 23.585554,70.20063 23.42751,70.140424 c 0.135467,-0.05268 0.266868,-0.127989 0.394808,-0.225827 0.127941,-0.105362 0.240643,-0.229595 0.338481,-0.372586 0.105363,-0.150519 0.188356,-0.315989 0.248563,-0.496613 0.06773,-0.188147 0.101803,-0.391527 0.101803,-0.609779 0,-0.684861 -0.218236,-1.223024 -0.65474,-1.614374 -0.428979,-0.391348 -1.019909,-0.587044 -1.772502,-0.587044 z"
       style="font-style:normal;font-variant:normal;font-weight:normal;font-stretch:normal;font-size:11.2889px;line-height:1.25;font-family:DIN;-inkscape-font-specification:DIN;fill:#000000;fill-opacity:1;stroke:none;stroke-width:0.264583"
       id="path216" />
    <path
       inkscape:connector-curvature="0"
       style="font-style:normal;font-variant:normal;font-weight:normal;font-stretch:normal;font-size:11.2889px;line-height:1.25;font-family:DIN;-inkscape-font-specification:DIN;display:inline;fill:#000000;fill-opacity:1;stroke:none;stroke-width:0.264582"
       d="m 138.65864,39.776317 v 1.094992 h 1.21946 1.30805 0.49825 c 0.40641,0 0.73346,0.112803 0.98183,0.338592 0.2559,0.218264 0.38403,0.527061 0.38403,0.92596 0,0.398885 -0.12813,0.70734 -0.38403,0.925601 -0.24837,0.218264 -0.57542,0.327102 -0.98183,0.327102 h -0.49825 -1.30805 v -1.37276 h -1.21946 v 1.37276 4.425753 h 1.21946 v -3.38699 h 1.52411 l 1.69349,3.38699 h 1.42227 l -1.85174,-3.556552 c 0.45159,-0.127951 0.83203,-0.368715 1.14061,-0.72245 0.30857,-0.361258 0.46306,-0.831246 0.46306,-1.410772 0,-0.338681 -0.0604,-0.651451 -0.18087,-0.93745 -0.1129,-0.29352 -0.27841,-0.541517 -0.49666,-0.744727 -0.21828,-0.210737 -0.48161,-0.37281 -0.79018,-0.485702 -0.30105,-0.12042 -0.64362,-0.180347 -1.02744,-0.180347 z"
       id="path469" />
    <path
       id="path550"
       d="m 124.26104,39.776259 v 1.094966 h 1.21908 1.47281 0.28837 c 0.42899,0 0.77155,0.116594 1.02742,0.349901 0.26342,0.23331 0.39534,0.564316 0.39534,0.993302 0,0.428995 -0.13191,0.760348 -0.39534,0.993655 -0.25587,0.225784 -0.59843,0.338585 -1.02742,0.338585 h -0.28837 -1.47228 v -1.37273 h -1.21961 v 1.37273 4.267591 h 1.21908 v -3.161132 h 1.82889 c 0.39136,0 0.74528,-0.06045 1.06137,-0.180874 0.3161,-0.12794 0.58717,-0.297234 0.81296,-0.507967 0.22578,-0.218255 0.39851,-0.473998 0.51892,-0.767519 0.12044,-0.301047 0.18088,-0.628608 0.18088,-0.982339 0,-0.346204 -0.0605,-0.669446 -0.18088,-0.970495 -0.12041,-0.30104 -0.29314,-0.557323 -0.51892,-0.768048 -0.22579,-0.218264 -0.49686,-0.38755 -0.81296,-0.507967 -0.31609,-0.127944 -0.67001,-0.191659 -1.06137,-0.191659 z"
       style="font-style:normal;font-variant:normal;font-weight:normal;font-stretch:normal;font-size:11.2889px;line-height:1.25;font-family:DIN;-inkscape-font-specification:DIN;display:inline;fill:#000000;fill-opacity:1;stroke:none;stroke-width:0.264582"
       inkscape:connector-curvature="0" />
    <path
       inkscape:connector-curvature="0"
       id="path616"
       d="m 18.95777,39.775388 v 1.094758 h 1.21888 1.80567 0.13438 v 0.009 c 0.32836,0.0207 0.60196,0.112521 0.81381,0.284651 0.24079,0.195649 0.36121,0.48143 0.36121,0.85767 0,0.376237 -0.12042,0.662017 -0.36121,0.857666 -0.21185,0.172131 -0.48545,0.264144 -0.81381,0.284829 v 0.0088 h -0.13438 -1.8055 v -1.001228 h -1.21905 v 1.001229 1.094939 1.178563 h 1.21905 v -1.178563 h 1.91866 0.0212 v 0.0021 c 0.4179,0.004 0.73877,0.11573 0.96056,0.337515 0.22575,0.225743 0.33894,0.519115 0.33894,0.880298 0,0.36119 -0.11319,0.657987 -0.33894,0.89126 -0.22179,0.221795 -0.54266,0.333624 -0.96056,0.337515 v 0.0021 h -0.0212 -1.91883 -1.21888 v 1.094935 h 3.25051 c 0.35366,0 0.67736,-0.0489 0.97082,-0.146744 0.30099,-0.09779 0.55645,-0.240807 0.76714,-0.428922 0.21821,-0.195639 0.38756,-0.433048 0.50796,-0.711456 0.12039,-0.285941 0.18087,-0.612894 0.18087,-0.981604 0,-0.255837 -0.0342,-0.485651 -0.10184,-0.68882 -0.0677,-0.203165 -0.15781,-0.379559 -0.27069,-0.530053 -0.11287,-0.150497 -0.24087,-0.278496 -0.38383,-0.383839 -0.14297,-0.112873 -0.29319,-0.1997 -0.4512,-0.259898 0.13543,-0.05269 0.26688,-0.127954 0.39479,-0.225777 0.12792,-0.105343 0.24059,-0.229192 0.33841,-0.372169 0.10535,-0.150497 0.18837,-0.31639 0.24858,-0.496989 0.0677,-0.188111 0.10166,-0.390873 0.10166,-0.609086 0,-0.684748 -0.21809,-1.222917 -0.65452,-1.614204 -0.42891,-0.391253 -1.0198,-0.586806 -1.77227,-0.586806 z"
       style="font-style:normal;font-variant:normal;font-weight:normal;font-stretch:normal;font-size:11.2889px;line-height:1.25;font-family:DIN;-inkscape-font-specification:DIN;display:inline;fill:#000000;fill-opacity:1;stroke:none;stroke-width:0.264583" />
    <path
       sodipodi:nodetypes="cccccccccccccc"
       inkscape:connector-curvature="0"
       id="path571"
       style="font-style:normal;font-variant:normal;font-weight:normal;font-stretch:normal;font-size:11.2889px;line-height:1.25;font-family:DIN;-inkscape-font-specification:DIN;display:inline;fill:#000000;fill-opacity:1;stroke:none;stroke-width:0.264582"
       d="m 188.14511,23.90099 h -1.20823 l -0.96899,5.15568 -1.16644,-5.15568 h -1.1266 l -1.11918,5.132057 -1.03987,-5.132057 h -1.13737 l 1.70155,8.038 h 1.0489 l 1.12832,-5.066411 1.04299,5.066411 h 1.1434 z" />
    <path
       d="m 188.14511,39.775991 h -1.20823 l -0.96899,5.15568 -1.16644,-5.15568 h -1.1266 l -1.11918,5.132057 -1.03987,-5.132057 h -1.13737 l 1.70155,8.038 h 1.0489 l 1.12832,-5.066411 1.04299,5.066411 h 1.1434 z"
       style="font-style:normal;font-variant:normal;font-weight:normal;font-stretch:normal;font-size:11.2889px;line-height:1.25;font-family:DIN;-inkscape-font-specification:DIN;display:inline;fill:#000000;fill-opacity:1;stroke:none;stroke-width:0.264582"
       id="path138"
       inkscape:connector-curvature="0"
       sodipodi:nodetypes="cccccccccccccc" />
  </g>
</svg>
